<svg width="62" height="26" viewBox="0 0 62 26" fill="none" xmlns="http://www.w3.org/2000/svg">
<rect x="0.5" y="0.5" width="61" height="25" rx="12.5" fill="#333333"/>
<path d="M24.14 9.45H22.7L21.36 13.81C21.12 14.59 20.93 15.27 20.67 16.04H20.5C20.27 15.28 20.05 14.52 19.83 13.79L18.51 9.45H17.05V16.82H17.83V12.5C17.83 11.66 17.8 10.96 17.81 10.16H17.98C18.22 10.97 18.4 11.65 18.65 12.44L20.01 16.82H21.12L22.51 12.43C22.77 11.6 22.95 10.94 23.16 10.16H23.33C23.33 10.96 23.31 11.65 23.31 12.49V16.82H24.14V9.45ZM28.8495 9.32C27.0995 9.32 25.8095 10.72 25.8095 13.15C25.8095 15.57 27.0795 16.96 28.8495 16.96C30.6095 16.96 31.8895 15.55 31.8895 13.13C31.8895 10.7 30.6195 9.32 28.8495 9.32ZM28.8495 10.04C30.1095 10.04 30.9695 11.1 30.9695 13.14C30.9695 15.17 30.1095 16.24 28.8495 16.24C27.5995 16.24 26.7295 15.17 26.7295 13.14C26.7295 11.1 27.5995 10.04 28.8495 10.04ZM33.5637 9.45V16.82H34.4137V13.38H36.1937L37.8137 16.82H38.7737L37.0137 13.24C38.0537 13 38.5737 12.29 38.5737 11.38C38.5737 10.16 37.7837 9.45 36.0437 9.45H33.5637ZM34.4137 10.15H35.9937C37.2237 10.15 37.6837 10.59 37.6837 11.39C37.6837 12.22 37.1637 12.7 35.9337 12.7H34.4137V10.15ZM44.9127 9.45H40.2727V16.82H44.9827V16.09H41.1427V13.27H43.9927V12.54H41.1427V10.18H44.9127V9.45Z" fill="white"/>
<rect x="0.5" y="0.5" width="61" height="25" rx="12.5" stroke="#333333"/>
</svg>
