<svg id="レイヤー_1" data-name="レイヤー 1" xmlns="http://www.w3.org/2000/svg" viewBox="0 0 314.11 53.21"><defs><style>.cls-1{fill:#231815;}</style></defs><path class="cls-1" d="M266.85,286.56c-2.05,0-3-.83-3-2.39V273.39c0-1.56.91-2.44,3-2.44h1.84c.27-.69.49-1.39.69-2.1a1.13,1.13,0,0,1,1.12-.82,1.07,1.07,0,0,1,1.15,1,1.36,1.36,0,0,1-.06.38A13.66,13.66,0,0,1,271,271h3.15c2,0,3,.88,3,2.44v10.78c0,1.88-1.28,2.39-3,2.39Zm8-12.73c0-.55-.21-.89-1-.89h-6.83c-.77,0-1,.34-1,.89v1.54h8.78Zm-8.78,6h8.78v-2.51h-8.78Zm7.8,4.7c.77,0,1-.32,1-.87v-1.88h-8.78v1.88c0,.65.34.87,1,.87Z" transform="translate(-263.89 -268.03)"/><path class="cls-1" d="M289,268.7a1.07,1.07,0,0,1,1.15,1,1.26,1.26,0,0,1-.1.44,21.79,21.79,0,0,1-5.41,7.5,1.27,1.27,0,0,1-.87.37,1.13,1.13,0,0,1-1.12-1.1,1.28,1.28,0,0,1,.45-.89,19.52,19.52,0,0,0,4.86-6.65A1.12,1.12,0,0,1,289,268.7Zm2.31,9.65a10.29,10.29,0,0,1-6.22,8.49,1.55,1.55,0,0,1-.61.15,1,1,0,0,1-1.06-1,1.2,1.2,0,0,1,.75-1,8.3,8.3,0,0,0,4.95-6.59h-2a.89.89,0,0,1-.87-1,.87.87,0,0,1,.87-.95H295c1.92,0,2.67.62,2.67,2.12a21.92,21.92,0,0,1-.69,5.88c-.5,1.74-1.39,2.37-2.95,2.37a12.26,12.26,0,0,1-1.93-.14,1,1,0,0,1-.93-1.05,1,1,0,0,1,1.05-1.08,1.23,1.23,0,0,1,.26,0,7.22,7.22,0,0,0,1.36.13.88.88,0,0,0,1-.78,20.18,20.18,0,0,0,.6-4.94c0-.47-.2-.63-.77-.63Zm9.59-2.92a1.34,1.34,0,0,1,.6,1.06,1.2,1.2,0,0,1-1.19,1.17,1.15,1.15,0,0,1-.75-.28,21.56,21.56,0,0,1-5.94-7.36,1,1,0,0,1,.95-1.42,1.14,1.14,0,0,1,1,.67A18.51,18.51,0,0,0,300.86,275.43Z" transform="translate(-263.89 -268.03)"/><path class="cls-1" d="M308.05,270a1.06,1.06,0,0,1,1.17,1,1,1,0,0,1,0,.23,42.25,42.25,0,0,0-.93,9,40.5,40.5,0,0,0,.37,4.76c0,.06,0,.12,0,.16a1.1,1.1,0,0,1-1.18,1.07,1.12,1.12,0,0,1-1.18-1,44.71,44.71,0,0,1-.34-5,45.7,45.7,0,0,1,1-9.37A1.09,1.09,0,0,1,308.05,270Zm9.2,12.47a16.89,16.89,0,0,0,3.06-.31,1,1,0,0,1,.24,0,1.09,1.09,0,0,1,1.08,1.14,1.06,1.06,0,0,1-.89,1.07,18,18,0,0,1-3.51.34c-3.75,0-5.31-1.13-5.53-3.58V281a1.13,1.13,0,0,1,1.17-1.14,1,1,0,0,1,1,.87C314.09,282,314.72,282.43,317.25,282.43Zm2.11-10.69a1,1,0,0,1,1.09,1.08,1.11,1.11,0,0,1-1,1.11,49.83,49.83,0,0,1-5.72.45,1.1,1.1,0,1,1-.08-2.19,47.74,47.74,0,0,0,5.58-.45Z" transform="translate(-263.89 -268.03)"/><path class="cls-1" d="M334.37,272.39h.15c.79,0,1.45,0,2.08-.1h.1a1,1,0,0,1,1,1.08,1,1,0,0,1-.88,1,21.32,21.32,0,0,1-2.24.1H334c-.12.95-.29,1.89-.43,2.84h.33a18.57,18.57,0,0,0,3.18-.27.68.68,0,0,1,.2,0,1,1,0,0,1,1,1.08,1,1,0,0,1-.87,1.07,18.31,18.31,0,0,1-3.52.33h-.57c-.06.71-.08,1.27-.08,1.76,0,2.19.91,2.94,2.69,2.94,2.23,0,3.43-.79,3.43-2.8a5.65,5.65,0,0,0-.24-1.5,1,1,0,0,1,0-.3,1,1,0,0,1,1.15-1,1.2,1.2,0,0,1,1.2.87,6.12,6.12,0,0,1,.3,1.86c0,3.47-2.35,5.15-5.76,5.15-3.16,0-5-1.62-5-5.09a19.48,19.48,0,0,1,.1-2,18,18,0,0,1-2.43-.41,1.11,1.11,0,0,1-.86-1.09,1.06,1.06,0,0,1,1-1.12,1.11,1.11,0,0,1,.36,0,18.69,18.69,0,0,0,2.15.39c.12-1,.27-1.89.43-2.84a13.64,13.64,0,0,1-2.13-.33,1,1,0,0,1-.87-1,1,1,0,0,1,1-1.09,1.1,1.1,0,0,1,.25,0,18.65,18.65,0,0,0,2.08.32l.51-2.92a1.08,1.08,0,0,1,1.15-.85,1,1,0,0,1,1.14,1,.82.82,0,0,1,0,.21Z" transform="translate(-263.89 -268.03)"/><path class="cls-1" d="M347.22,282.4a1.08,1.08,0,0,1,1.09-1,1.43,1.43,0,0,1,.71.22,16,16,0,0,1,3.63,3.21,1.43,1.43,0,0,1,.37.93,1.15,1.15,0,0,1-1.18,1.13,1.24,1.24,0,0,1-1-.5,19.55,19.55,0,0,0-3.16-3.1A1,1,0,0,1,347.22,282.4Z" transform="translate(-263.89 -268.03)"/><path class="cls-1" d="M378.92,271.34h1.29c1.18,0,2.29,0,3.33,0a1,1,0,0,1,1,1.09,1,1,0,0,1-1,1c-.79,0-1.66,0-2.58,0l-2,0q0,1.06.06,2.13c1.33-.09,2.63-.19,3.81-.33H383a1,1,0,0,1,1.07,1,1.07,1.07,0,0,1-1,1.08c-1.24.16-2.57.26-3.93.34,0,.9.12,1.79.2,2.68a18.3,18.3,0,0,1,5.09,2.21,1.31,1.31,0,0,1,.69,1.09,1.22,1.22,0,0,1-1.2,1.2,1.24,1.24,0,0,1-.69-.22,18.41,18.41,0,0,0-3.75-1.95v.14c0,2.19-1.9,3.24-4.25,3.24-2.58,0-4.16-1.23-4.16-3.12s1.46-3.12,4.36-3.12a15.35,15.35,0,0,1,1.64.1c-.06-.73-.14-1.46-.16-2.17h-1.16c-1.21,0-2.45,0-3.16-.12a1,1,0,0,1-1-1.07,1,1,0,0,1,1-1.08h.14a25.57,25.57,0,0,0,2.92.15h1.1c0-.73-.06-1.44-.08-2.17-1.73,0-3.41.1-4.83.16a1,1,0,0,1-1.05-1.07,1,1,0,0,1,1-1.08c1.42-.06,3.1-.14,4.83-.16v-2.05c0-.61.56-.91,1.13-.91a1,1,0,0,1,1.12.91Zm-1.67,11.23v-.45a9.44,9.44,0,0,0-1.82-.18c-1.58,0-2.05.49-2.05,1.09s.53,1,1.85,1S377.25,283.42,377.25,282.57Z" transform="translate(-263.89 -268.03)"/><path class="cls-1" d="M396.81,275.84a9.44,9.44,0,0,1,5.84-2.41,4.79,4.79,0,0,1,5.08,4.88c0,3.47-2.19,5.82-5.71,6.75a2,2,0,0,1-.33,0,1.12,1.12,0,0,1-1.13-1.11,1.15,1.15,0,0,1,.93-1.12c2.62-.75,3.87-2.11,3.87-4.54a2.59,2.59,0,0,0-2.71-2.82c-1.81,0-3.89,1-5.88,2.9l0,7a1,1,0,0,1-1.1,1,1,1,0,0,1-1.07-1l.06-4.62L392.88,283a1,1,0,0,1-.81.43,1.12,1.12,0,0,1-1.1-1.06,1,1,0,0,1,.25-.64,49.61,49.61,0,0,0,3.46-4.91l0-1.4-2.29.43a.75.75,0,0,1-.2,0,1,1,0,0,1-1-1.08,1,1,0,0,1,.79-1l2.69-.45,0-3.38a1,1,0,0,1,1.1-.95,1,1,0,0,1,1.07.95l-.06,3.14a.65.65,0,0,1,.67.65c0,.37-.18.69-.73,1.36Z" transform="translate(-263.89 -268.03)"/><path class="cls-1" d="M417.74,277.66a12.46,12.46,0,0,0,.53-1.4.93.93,0,0,1,.87-.64.86.86,0,0,1,.91.81,1,1,0,0,1,0,.24,16.37,16.37,0,0,1-1.42,3.34,1.62,1.62,0,0,1-1.39.83,1.3,1.3,0,0,1-1.3-1,13.9,13.9,0,0,1-.49-3.48,27.46,27.46,0,0,1,.75-6,1.14,1.14,0,0,1,1.16-.83,1,1,0,0,1,1.11.91,1.38,1.38,0,0,1,0,.26,28.81,28.81,0,0,0-.75,5.41,14.38,14.38,0,0,0,.06,1.48ZM423,270.2a1.11,1.11,0,0,1,1.22-1,1.13,1.13,0,0,1,1.19,1,48.72,48.72,0,0,1,.43,6.53c0,4.4-1.58,7.46-4.42,9.63a1.41,1.41,0,0,1-.85.32,1.14,1.14,0,0,1-1.13-1.13,1.34,1.34,0,0,1,.52-1,9.39,9.39,0,0,0,3.45-7.8,50.59,50.59,0,0,0-.41-6.34Z" transform="translate(-263.89 -268.03)"/><path class="cls-1" d="M436.93,270a1.07,1.07,0,0,1,1.18,1,1,1,0,0,1,0,.23,42.25,42.25,0,0,0-.93,9,43,43,0,0,0,.36,4.76c0,.06,0,.12,0,.16a1.1,1.1,0,0,1-1.17,1.07,1.12,1.12,0,0,1-1.18-1,44.71,44.71,0,0,1-.34-5,45.7,45.7,0,0,1,.95-9.37A1.08,1.08,0,0,1,436.93,270Zm9.21,12.47a17,17,0,0,0,3.06-.31,1,1,0,0,1,.24,0,1.08,1.08,0,0,1,1.07,1.14,1,1,0,0,1-.89,1.07,17.87,17.87,0,0,1-3.5.34c-3.75,0-5.32-1.13-5.54-3.58V281a1.13,1.13,0,0,1,1.18-1.14,1,1,0,0,1,1,.87C443,282,443.6,282.43,446.14,282.43Zm2.1-10.69a1.05,1.05,0,0,1,1.1,1.08,1.12,1.12,0,0,1-1,1.11,49.66,49.66,0,0,1-5.71.45,1.1,1.1,0,1,1-.08-2.19,47.57,47.57,0,0,0,5.57-.45Z" transform="translate(-263.89 -268.03)"/><path class="cls-1" d="M463.26,272.39h.14c.79,0,1.46,0,2.09-.1h.1a1,1,0,0,1,1,1.08,1,1,0,0,1-.87,1,21.68,21.68,0,0,1-2.25.1h-.57c-.12.95-.28,1.89-.42,2.84h.32a18.48,18.48,0,0,0,3.18-.27.78.78,0,0,1,.21,0,1,1,0,0,1,1,1.08,1,1,0,0,1-.87,1.07,18.34,18.34,0,0,1-3.53.33h-.57c-.06.71-.08,1.27-.08,1.76,0,2.19.92,2.94,2.7,2.94,2.23,0,3.42-.79,3.42-2.8a5.65,5.65,0,0,0-.24-1.5,1.54,1.54,0,0,1,0-.3,1.06,1.06,0,0,1,1.16-1,1.19,1.19,0,0,1,1.19.87,6.14,6.14,0,0,1,.31,1.86c0,3.47-2.36,5.15-5.76,5.15-3.16,0-5-1.62-5-5.09a19.48,19.48,0,0,1,.1-2,18,18,0,0,1-2.43-.41,1.1,1.1,0,0,1-.85-1.09,1.06,1.06,0,0,1,1-1.12,1.14,1.14,0,0,1,.37,0,18.69,18.69,0,0,0,2.15.39c.12-1,.26-1.89.42-2.84a13.32,13.32,0,0,1-2.12-.33,1,1,0,0,1-.88-1,1,1,0,0,1,1-1.09,1,1,0,0,1,.24,0,19.22,19.22,0,0,0,2.09.32l.51-2.92a1.07,1.07,0,0,1,1.15-.85,1,1,0,0,1,1.14,1,.82.82,0,0,1,0,.21Z" transform="translate(-263.89 -268.03)"/><path class="cls-1" d="M476.11,282.4a1.08,1.08,0,0,1,1.09-1,1.46,1.46,0,0,1,.71.22,16,16,0,0,1,3.63,3.21,1.46,1.46,0,0,1,.36.93,1.14,1.14,0,0,1-1.17,1.13,1.25,1.25,0,0,1-1-.5,19.15,19.15,0,0,0-3.16-3.1A1,1,0,0,1,476.11,282.4Z" transform="translate(-263.89 -268.03)"/><path class="cls-1" d="M499.84,275.29h-1.36a1,1,0,0,1,0-1.94h1.36v-3.69a1,1,0,0,1,1.07-.88c.55,0,1.07.29,1.07.88v3.69h1.12a1,1,0,0,1,0,1.94H502v4.91l.88-.37a1.07,1.07,0,0,1,.4-.1,1,1,0,0,1,.91,1,.85.85,0,0,1-.5.81,38.12,38.12,0,0,1-4.91,2,1,1,0,0,1-.34.06,1.07,1.07,0,0,1-1-1.11,1,1,0,0,1,.69-.94c.55-.16,1.14-.36,1.73-.56Zm9.16-1v-5.07c0-.55.5-.83,1-.83a.9.9,0,0,1,1,.83v4.54l1.3-.34a3.75,3.75,0,0,1,.89-.13c1.1,0,1.73.69,1.73,1.91a29.48,29.48,0,0,1-.45,5.11c-.28,1.46-1,1.94-1.93,1.94a5,5,0,0,1-.93-.1.8.8,0,0,1-.61-.51v.71c0,.55-.5.82-1,.82s-1-.27-1-.82v-6.08l-1.56.43v6.75c0,1,.32,1.17,3,1.17,3.22,0,3.4-.2,3.66-1.5a1,1,0,0,1,1.06-.85,1,1,0,0,1,1,1,.75.75,0,0,1,0,.2c-.36,2.73-1.7,3.14-5.69,3.14-4.34,0-5.09-.63-5.09-2.84v-6.5l-.83.22a1,1,0,0,1-.25,0,1,1,0,0,1-.89-1,.9.9,0,0,1,.67-.9l1.3-.34v-3.89a1,1,0,0,1,1.05-.87.91.91,0,0,1,1,.85v3.38Zm2,6.44a.81.81,0,0,1,.77-.54h.13l.3,0c.16,0,.24-.06.28-.27a24.3,24.3,0,0,0,.33-4.19c0-.27-.06-.39-.27-.39a.78.78,0,0,0-.28,0l-1.26.35Z" transform="translate(-263.89 -268.03)"/><path class="cls-1" d="M521.28,276.81H520c-.53,0-.79-.49-.79-1a.85.85,0,0,1,.79-.95h1.28V271.8h-1.56c-.53,0-.79-.48-.79-1a.86.86,0,0,1,.79-.95h5.14a1,1,0,0,1,0,1.92H523.4v3.09h1.14a.85.85,0,0,1,.79.95c0,.48-.26,1-.79,1H523.4v3.55c.45-.16.86-.31,1.24-.47a1.26,1.26,0,0,1,.45-.08.93.93,0,0,1,.91,1,.91.91,0,0,1-.57.87,32.84,32.84,0,0,1-5.41,1.87,1.57,1.57,0,0,1-.28,0,1,1,0,0,1-1-1.05,1,1,0,0,1,.79-1c.53-.12,1.14-.28,1.75-.46Zm6.93,3.51a1,1,0,0,1,.73-.31,1,1,0,0,1,1,1,1.08,1.08,0,0,1-.34.75,23.54,23.54,0,0,1-3.57,2.73,1.26,1.26,0,0,1-.63.18,1.06,1.06,0,0,1-1-1,1,1,0,0,1,.59-.91A19,19,0,0,0,528.21,280.32Zm-1.79-6.41a1,1,0,0,1,0-1.94h3.88v-2.82c0-.57.52-.85,1.05-.85s1,.28,1,.85V272h4.22a1,1,0,0,1,0,1.94H532.4v.71a17.32,17.32,0,0,0,.92,2.39,13.87,13.87,0,0,0,1.84-1.72,1.09,1.09,0,0,1,.81-.4,1,1,0,0,1,1,1,1,1,0,0,1-.32.69,18.62,18.62,0,0,1-2.53,2.11,18.49,18.49,0,0,0,3.28,4.17,1.23,1.23,0,0,1,.39.85,1.14,1.14,0,0,1-1.1,1.12,1.21,1.21,0,0,1-.89-.43,18.49,18.49,0,0,1-3.55-5.51l.1,3.61v1.92c0,1.91-.89,2.64-2.57,2.64a5.17,5.17,0,0,1-1.16-.13,1.09,1.09,0,0,1,.15-2.16.68.68,0,0,1,.2,0,3,3,0,0,0,.73.08c.42,0,.55-.12.55-.69V273.91Zm3,3a1.15,1.15,0,0,1,.27.71,1,1,0,0,1-1,1,1.1,1.1,0,0,1-.83-.44,13.28,13.28,0,0,0-1.23-1.42.88.88,0,0,1-.29-.65,1,1,0,0,1,1.06-1,1.13,1.13,0,0,1,.73.3A12,12,0,0,1,529.42,276.87Zm6.19-6.81a1.05,1.05,0,0,1,.26.67.95.95,0,0,1-1.72.53,7.44,7.44,0,0,0-.83-.91.87.87,0,0,1,.64-1.54,1,1,0,0,1,.67.26A7.62,7.62,0,0,1,535.61,270.06Z" transform="translate(-263.89 -268.03)"/><path class="cls-1" d="M544.34,270a1.06,1.06,0,0,1,1.17,1,1,1,0,0,1,0,.23,42.91,42.91,0,0,0-.93,9,40.5,40.5,0,0,0,.37,4.76c0,.06,0,.12,0,.16a1.19,1.19,0,0,1-2.35.08,42.29,42.29,0,0,1-.35-5,45.7,45.7,0,0,1,1-9.37A1.09,1.09,0,0,1,544.34,270Zm9.2,12.47a16.89,16.89,0,0,0,3.06-.31,1,1,0,0,1,.24,0,1.09,1.09,0,0,1,1.08,1.14,1.06,1.06,0,0,1-.89,1.07,18,18,0,0,1-3.51.34c-3.75,0-5.31-1.13-5.53-3.58V281a1.13,1.13,0,0,1,1.17-1.14,1,1,0,0,1,1,.87C550.38,282,551,282.43,553.54,282.43Zm2.11-10.69a1,1,0,0,1,1.09,1.08,1.11,1.11,0,0,1-1,1.11,49.65,49.65,0,0,1-5.72.45,1.1,1.1,0,1,1-.08-2.19,47.74,47.74,0,0,0,5.58-.45Z" transform="translate(-263.89 -268.03)"/><path class="cls-1" d="M570.66,272.39h.14c.8,0,1.46,0,2.09-.1h.1a1,1,0,0,1,1,1.08,1,1,0,0,1-.87,1,21.68,21.68,0,0,1-2.25.1h-.57c-.12.95-.29,1.89-.43,2.84h.33a18.57,18.57,0,0,0,3.18-.27.68.68,0,0,1,.2,0,1,1,0,0,1,1,1.08,1,1,0,0,1-.87,1.07,18.31,18.31,0,0,1-3.52.33h-.57c-.06.71-.08,1.27-.08,1.76,0,2.19.91,2.94,2.69,2.94,2.23,0,3.43-.79,3.43-2.8a5.65,5.65,0,0,0-.24-1.5,1.57,1.57,0,0,1,0-.3,1.06,1.06,0,0,1,1.16-1,1.2,1.2,0,0,1,1.2.87,6.12,6.12,0,0,1,.3,1.86c0,3.47-2.35,5.15-5.76,5.15-3.16,0-5-1.62-5-5.09a19.48,19.48,0,0,1,.1-2,18,18,0,0,1-2.43-.41,1.1,1.1,0,0,1-.85-1.09,1.05,1.05,0,0,1,1-1.12,1.11,1.11,0,0,1,.36,0,18.69,18.69,0,0,0,2.15.39c.12-1,.27-1.89.43-2.84a13.64,13.64,0,0,1-2.13-.33,1,1,0,0,1-.87-1,1,1,0,0,1,1-1.09,1,1,0,0,1,.24,0,19.22,19.22,0,0,0,2.09.32l.51-2.92a1.08,1.08,0,0,1,1.15-.85,1,1,0,0,1,1.14,1,.82.82,0,0,1,0,.21Z" transform="translate(-263.89 -268.03)"/><path class="cls-1" d="M291.6,302.76c0-.53.55-.79,1.08-.79s1.07.26,1.07.79v.79h6.5a.77.77,0,0,1,.78.83.79.79,0,0,1-.78.83h-3.48a.67.67,0,0,1,.18.47.9.9,0,0,1-.1.38,7.54,7.54,0,0,1-.47.77h5.11a.83.83,0,0,1,0,1.66H283.94a.83.83,0,0,1,0-1.66h5c-.15-.22-.31-.45-.47-.65a.91.91,0,0,1-.2-.55.75.75,0,0,1,.14-.42h-3.18a.76.76,0,0,1-.73-.83.75.75,0,0,1,.73-.83h6.36Zm-5.47,13.41a1,1,0,0,1,1,.9,1.26,1.26,0,0,1-.1.42,10.18,10.18,0,0,1-1.26,2.19,1.12,1.12,0,0,1-.87.45,1,1,0,0,1-1.05-1,1,1,0,0,1,.22-.6,11.59,11.59,0,0,0,1.1-1.85A1,1,0,0,1,286.13,316.17Zm2.67-1.05c-1.66,0-2.27-.53-2.27-1.68V311c0-1.14.61-1.67,2.27-1.67h8c1.66,0,2.27.53,2.27,1.67v2.45c0,1.46-1,1.68-2.27,1.68Zm-.66,1.56a.92.92,0,0,1,1-.85c.53,0,1.05.28,1.05.85v2c0,.4.16.5,2.47.5,2.56,0,2.9-.2,3-1.13a.92.92,0,0,1,1-.79,1,1,0,0,1,1.05.91v.1c-.18,2-1,2.58-5,2.58s-4.55-.37-4.55-1.93Zm8.85-5.57c0-.31-.1-.41-.57-.41h-7.23c-.47,0-.57.1-.57.41v.46H297Zm-.57,2.63c.47,0,.57-.1.57-.4v-.49h-8.37v.49c0,.38.24.4.57.4Zm-2.35-6.91a8,8,0,0,0,.77-1.32,1,1,0,0,1,.21-.3h-4.87a4.74,4.74,0,0,1,.69.91,1,1,0,0,1,.16.49.72.72,0,0,1,0,.22Zm0,9.38a1,1,0,0,1,.43.79,1,1,0,0,1-.95.94,1,1,0,0,1-.63-.23c-.35-.26-.75-.58-1.12-.83a.82.82,0,0,1-.42-.71.94.94,0,0,1,1-.87,1.07,1.07,0,0,1,.53.12A8.47,8.47,0,0,1,294.09,316.21Zm7.24,1.75a1.11,1.11,0,0,1,.24.65,1.07,1.07,0,0,1-1.09,1,1,1,0,0,1-.83-.43,17.07,17.07,0,0,0-1.42-1.66.9.9,0,0,1-.29-.65A1,1,0,0,1,299,316a1.08,1.08,0,0,1,.77.31A10.85,10.85,0,0,1,301.33,318Z" transform="translate(-263.89 -268.03)"/><path class="cls-1" d="M312.31,305.43c1.42,0,2.21.77,2.21,1.93a3,3,0,0,1,0,.42,19.8,19.8,0,0,1-7,12.47,1.24,1.24,0,0,1-.77.28,1.09,1.09,0,0,1-.65-2,17.69,17.69,0,0,0,4.09-4.91,14.9,14.9,0,0,0-1.42-1,1,1,0,0,1-.46-.81,1,1,0,0,1,1.54-.92,13.8,13.8,0,0,1,1.27.9,16.65,16.65,0,0,0,1.12-3.75.86.86,0,0,0,0-.21c0-.34-.18-.42-.67-.42h-1.88a20.39,20.39,0,0,1-2.66,4.86,1.19,1.19,0,0,1-1,.51,1.1,1.1,0,0,1-1.12-1,1.15,1.15,0,0,1,.29-.75,20.65,20.65,0,0,0,3.36-7.67,1.11,1.11,0,0,1,1.14-.87,1,1,0,0,1,1.11,1,1,1,0,0,1,0,.24c-.12.57-.28,1.15-.44,1.74Zm7.78,5.35a17.59,17.59,0,0,0,3.25,1.93,1.14,1.14,0,0,1,.71,1.05,1.07,1.07,0,0,1-1,1.12,1.11,1.11,0,0,1-.54-.15,21.66,21.66,0,0,1-2.4-1.39v7a1.11,1.11,0,0,1-2.19,0v-8.62a21.82,21.82,0,0,1-2.59-2.47,1.12,1.12,0,0,1-.3-.71,1,1,0,0,1,1.05-1,1.27,1.27,0,0,1,.93.47l.91.95v-5.53a1.11,1.11,0,0,1,2.19,0Z" transform="translate(-263.89 -268.03)"/><path class="cls-1" d="M332.54,303.81a1.18,1.18,0,0,1,2.35,0,36,36,0,0,0,.46,5.94,27.06,27.06,0,0,1,4-1.58,1.13,1.13,0,0,1,.36-.06,1.09,1.09,0,0,1,1.05,1.13,1,1,0,0,1-.75,1,23.31,23.31,0,0,0-5.33,2.35c-1.74,1.13-2.35,2.25-2.35,3.28,0,1.26.83,1.91,4.06,1.91a22.38,22.38,0,0,0,4.19-.37,1.23,1.23,0,0,1,.26,0,1.07,1.07,0,0,1,1.1,1.11,1.11,1.11,0,0,1-.91,1.14,23.75,23.75,0,0,1-4.66.38c-4.26,0-6.39-1.29-6.39-4,0-1.66.77-3.3,3.3-5A32.77,32.77,0,0,1,332.54,303.81Z" transform="translate(-263.89 -268.03)"/><path class="cls-1" d="M362.71,304.58c1.78,0,2.66.77,2.66,1.85a3.06,3.06,0,0,1-.53,1.54,15.26,15.26,0,0,1-3.22,3.52,1.39,1.39,0,0,1-.86.33,1.11,1.11,0,0,1-1.09-1.12,1.31,1.31,0,0,1,.57-1,10.67,10.67,0,0,0,2.13-2.25.66.66,0,0,0,.14-.37c0-.16-.14-.24-.47-.24l-11.51.08a1.06,1.06,0,0,1-1.08-1.11,1.07,1.07,0,0,1,1.08-1.12ZM356,309.32a1.19,1.19,0,0,1,2.35,0v1a10.59,10.59,0,0,1-5.35,9.6,1.43,1.43,0,0,1-.77.25A1.15,1.15,0,0,1,351,319a1.33,1.33,0,0,1,.75-1.11,8.18,8.18,0,0,0,4.19-7.6Z" transform="translate(-263.89 -268.03)"/><path class="cls-1" d="M376,312.81a1.23,1.23,0,0,1-2.43,0v-8a1.22,1.22,0,0,1,2.43,0Zm5.35-8.31a1.1,1.1,0,0,1,1.24-1,1.08,1.08,0,0,1,1.19,1v6c0,5.13-2.18,8.23-6.1,10.09a1.5,1.5,0,0,1-.6.16,1.21,1.21,0,0,1-1.2-1.19,1.18,1.18,0,0,1,.75-1.05c3.39-1.67,4.72-4.12,4.72-8.17Z" transform="translate(-263.89 -268.03)"/><path class="cls-1" d="M396.45,303.43a1.06,1.06,0,0,1,1.09-.88,1,1,0,0,1,1.1,1,1.14,1.14,0,0,1,0,.26c-.16.77-.37,1.58-.59,2.39l1.78-.3a1,1,0,0,1,.23,0,1.06,1.06,0,0,1,.14,2.11c-.87.18-1.87.34-2.86.48a36.76,36.76,0,0,1-3.12,6.83,1.33,1.33,0,0,1-1.14.73,1.1,1.1,0,0,1-1.13-1.07,1.25,1.25,0,0,1,.22-.71,30.77,30.77,0,0,0,2.74-5.51c-.75.08-1.48.12-2.11.14a1,1,0,0,1-1-1.12,1,1,0,0,1,1-1.05c.91,0,1.92-.1,3-.2C396,305.47,396.25,304.44,396.45,303.43Zm3.63,17c-2.41,0-3.87-1.05-3.87-2.94,0-1.62,1.37-3,4-3a9.08,9.08,0,0,1,1,.06,14.9,14.9,0,0,1-.2-2.15,11.1,11.1,0,0,1,.14-2,1,1,0,0,1,1.06-.81,1,1,0,0,1,1.13.93c0,.06,0,.1,0,.16a12,12,0,0,0-.14,1.66,15.66,15.66,0,0,0,.28,2.64,13.84,13.84,0,0,1,3.81,1.76,1.14,1.14,0,0,1,.55.95,1.12,1.12,0,0,1-1.07,1.12,1.28,1.28,0,0,1-.69-.24,12.18,12.18,0,0,0-2.31-1.3C403.69,319.6,402,320.41,400.08,320.41Zm1.44-3.3a4.1,4.1,0,0,0,0-.51,7.27,7.27,0,0,0-1.28-.12c-1.42,0-1.86.44-1.86,1s.4.93,1.72.93C401,318.4,401.52,318,401.52,317.11Zm6.24-9.47a1.25,1.25,0,0,1,.67,1.06,1.12,1.12,0,0,1-1.08,1.11,1.16,1.16,0,0,1-.6-.18,19.57,19.57,0,0,0-2.9-1.4,1,1,0,0,1-.73-.91,1.14,1.14,0,0,1,1.15-1.12,1.43,1.43,0,0,1,.39.06A13,13,0,0,1,407.76,307.64Z" transform="translate(-263.89 -268.03)"/><path class="cls-1" d="M418.34,301.93a.46.46,0,0,1,.46.48.41.41,0,0,1-.22.35c-.85.48-1.28.93-1.28,1.68,0,.26.06.32.37.32a1.33,1.33,0,0,1,1.36,1.4,1.47,1.47,0,0,1-1.59,1.48c-.95,0-1.74-.77-1.74-2.17a3.84,3.84,0,0,1,2.17-3.38A1,1,0,0,1,418.34,301.93Zm4.21,0a.44.44,0,0,1,.45.48.41.41,0,0,1-.2.35c-.88.5-1.28.93-1.28,1.68,0,.26.06.32.36.32a1.33,1.33,0,0,1,1.36,1.4,1.47,1.47,0,0,1-1.58,1.48c-1,0-1.74-.77-1.74-2.17a3.85,3.85,0,0,1,2.15-3.38A1.12,1.12,0,0,1,422.55,301.93Z" transform="translate(-263.89 -268.03)"/><path class="cls-1" d="M430.11,316.92a13.65,13.65,0,0,1-2.35,2.48,1.18,1.18,0,0,1-.73.28,1,1,0,0,1-1-1,1,1,0,0,1,.43-.79,15.32,15.32,0,0,0,3.06-3.35h-2a1,1,0,0,1,0-1.86H430v-1.54h-3a.84.84,0,0,1-.75-.93c0-.47.26-.94.75-.94h4.19a16.06,16.06,0,0,0,.87-2.27.93.93,0,0,1,.92-.69,1,1,0,0,1,1,.88.8.8,0,0,1-.06.3c-.24.71-.47,1.28-.69,1.78h2c.5,0,.75.47.75.94s-.25.93-.75.93h-3.15v1.54h2.48c.5,0,.75.46.75.93s-.25.93-.75.93h-2.48v.81a11.55,11.55,0,0,1,2.29,1.3,1,1,0,0,1,.47.85,1,1,0,0,1-1,1,.94.94,0,0,1-.57-.2c-.38-.28-.81-.57-1.24-.85v2.9a.91.91,0,0,1-1,.87.92.92,0,0,1-1-.87v-1ZM430,303c0-.57.54-.83,1.07-.83s1.08.26,1.08.83v1.26h2.53c.51,0,.75.46.75.93s-.24.93-.75.93h-7.1a1,1,0,0,1,0-1.86H430Zm.6,5.29a.92.92,0,0,1-1,.85.9.9,0,0,1-.87-.59c-.14-.3-.22-.48-.4-.89a.74.74,0,0,1-.11-.42.89.89,0,0,1,1-.81,1,1,0,0,1,.91.56c.16.35.26.55.42,1A1,1,0,0,1,430.59,308.29Zm6.13-3.45a1,1,0,0,1,1.07-.87,1.19,1.19,0,0,1,.69.19,25.82,25.82,0,0,0,3.85-1.32,1.31,1.31,0,0,1,.53-.12,1,1,0,0,1,1,1.07,1,1,0,0,1-.61.91,26.05,26.05,0,0,1-4.4,1.46v2.7h5.4a1,1,0,0,1,0,1.88h-1.38V320a1.09,1.09,0,0,1-2.15,0v-9.28h-1.89c-.12,4.18-.95,7.26-2.35,9.51a1.17,1.17,0,0,1-1,.59,1,1,0,0,1-1.05-1,1.45,1.45,0,0,1,.24-.71c1.32-2,2-5,2-9.56Z" transform="translate(-263.89 -268.03)"/><path class="cls-1" d="M452.36,304.18a1.09,1.09,0,0,1,1.17-1,1.07,1.07,0,0,1,1.18,1c0,.22,0,.75-.06,1-.2,3-.37,6.1-.37,9.1,0,2.71.83,3.44,2.27,3.44,1.89,0,3.65-.77,5.52-3.08a1.21,1.21,0,0,1,1-.5,1.17,1.17,0,0,1,1.2,1.11,1.23,1.23,0,0,1-.29.75c-2.31,2.88-4.76,4-7.4,4-3,0-4.62-1.5-4.62-5.71C451.93,311,452.14,307.15,452.36,304.18Z" transform="translate(-263.89 -268.03)"/><path class="cls-1" d="M471.77,304.8a1.1,1.1,0,0,1,1.2,1.08c0,.28-.08,1.27-.08,1.9,0,7.1,1.44,9,2.29,9,.48,0,.93-.32,1.31-1.84a1.06,1.06,0,0,1,1-.87,1.11,1.11,0,0,1,1.15,1.09,1,1,0,0,1,0,.34c-.75,2.72-2,3.71-3.4,3.71-2.94,0-4.72-3.62-4.72-11.33,0-.93,0-1.54.08-2.06A1.11,1.11,0,0,1,471.77,304.8Zm15.28,8.6a1.22,1.22,0,0,1,.09.42A1.1,1.1,0,0,1,486,314.9a1.11,1.11,0,0,1-1.07-.77,17.89,17.89,0,0,0-3.51-5.52,1.05,1.05,0,0,1-.34-.75,1.12,1.12,0,0,1,1.15-1,1.31,1.31,0,0,1,.89.39A15.77,15.77,0,0,1,487.05,313.4Z" transform="translate(-263.89 -268.03)"/><path class="cls-1" d="M500.77,315.44a.9.9,0,0,1-.1,1.61,15.56,15.56,0,0,1-3,1.09.88.88,0,0,1-.2,0,23.72,23.72,0,0,0,5.53.47,51.2,51.2,0,0,0,5.49-.23h.15a1,1,0,0,1,1,1,1,1,0,0,1-1,1.05c-1.59.12-3.43.18-5.58.18-5.09,0-7.27-.56-8.84-2a14.3,14.3,0,0,1-2.12,2,1.14,1.14,0,0,1-.71.25,1.06,1.06,0,0,1-1.08-1,1.21,1.21,0,0,1,.59-.93,12.86,12.86,0,0,0,2-1.8v-3.94c0-.34-.06-.46-.59-.46h-.89a1,1,0,0,1,0-2h1.38c1.58,0,2.21.71,2.21,2.11v4.05a4.74,4.74,0,0,0,1.82,1.08,1,1,0,0,1-.37-.75.82.82,0,0,1,.69-.81,12.67,12.67,0,0,0,2.64-1l0,0h-3.43a.84.84,0,0,1,0-1.66h2.66v-1.13h-1.86a.76.76,0,0,1-.71-.83.74.74,0,0,1,.71-.83h1.86v-.37c0-.53.51-.77,1-.77s1,.24,1,.77V311h2.14v-.37c0-.53.51-.77,1-.77s1,.24,1,.77V311h2.27c.49,0,.71.4.71.83a.75.75,0,0,1-.71.83h-2.27v1.13h3.18a.84.84,0,0,1,0,1.66h-3.95l.12.07a16.07,16.07,0,0,0,2.37.93,1,1,0,0,1,.75.91.88.88,0,0,1-.91.89,1.13,1.13,0,0,1-.36-.06,10.57,10.57,0,0,1-2.82-1.18.91.91,0,0,1-.53-.81.86.86,0,0,1,.47-.75Zm-6-10.29a1.11,1.11,0,0,1-.85,1.88,1.09,1.09,0,0,1-.87-.44,10.76,10.76,0,0,0-1.34-1.4,1,1,0,0,1-.38-.79,1.08,1.08,0,0,1,1.09-1,1.27,1.27,0,0,1,.79.29A8.62,8.62,0,0,1,494.77,305.15Zm4.89-2.17c1.27,0,1.8.49,1.8,1.46v1.19c0,1-.53,1.38-1.8,1.38h-1.44c-.25,0-.33.08-.33.31v.38c0,.29.11.41.81.41,1.59,0,1.81-.1,1.87-.55a.75.75,0,0,1,.81-.61.81.81,0,0,1,.89.75v.1c-.16,1.52-.91,1.85-3.57,1.85-2.25,0-2.63-.41-2.63-1.62v-1.18c0-.91.53-1.38,1.64-1.38h1.54c.33,0,.43-.06.43-.24v-.39c0-.2-.08-.24-.43-.24h-2.71a.82.82,0,0,1,0-1.62Zm1.42,9.67v1.13h2.14v-1.13ZM506.2,303c1.28,0,1.81.49,1.81,1.46v1.19c0,1-.53,1.38-1.81,1.38h-1.39c-.25,0-.33.08-.33.31v.38c0,.29.1.41.95.41,1.54,0,1.79-.12,1.85-.63a.76.76,0,0,1,.83-.63.83.83,0,0,1,.91.77v.1c-.18,1.52-.95,1.93-3.59,1.93-2.39,0-2.77-.41-2.77-1.62v-1.14c0-.91.52-1.42,1.64-1.42h1.5c.32,0,.42-.06.42-.24v-.39c0-.2-.08-.24-.42-.24H503a.82.82,0,0,1,0-1.62Z" transform="translate(-263.89 -268.03)"/><path class="cls-1" d="M518.48,306.59a1,1,0,0,1,0,2h-1.36v3.06l1-.38a1,1,0,0,1,.4-.08,1,1,0,0,1,1,1,.93.93,0,0,1-.55.85c-.55.27-1.16.53-1.79.77v5c0,1.48-.73,2.17-2.37,2.17a6.54,6.54,0,0,1-1.17-.1,1,1,0,0,1-.87-1,1,1,0,0,1,1-1.05.68.68,0,0,1,.2,0,3.42,3.42,0,0,0,.65.06c.32,0,.43-.1.43-.47v-3.81c-.53.16-1,.33-1.52.45a1.76,1.76,0,0,1-.31,0,1,1,0,0,1-1-1.1,1,1,0,0,1,.79-1c.63-.16,1.32-.36,2-.61v-3.81h-1.77c-.53,0-.81-.48-.81-1a.87.87,0,0,1,.81-1H515v-3.43c0-.59.54-.87,1.09-.87s1.07.28,1.07.87v3.43Zm4.3,4a17.77,17.77,0,0,1-2.84,9.75,1.21,1.21,0,0,1-1,.53,1.07,1.07,0,0,1-1.12-1,1.33,1.33,0,0,1,.27-.75c1.66-2.39,2.53-5.39,2.53-9.93v-3.87c0-1.42.73-2.09,2.29-2.09h4.56c1.58,0,2.31.69,2.31,2.09v3.16c0,1.4-.73,2.11-2.31,2.11h-1.19a13.81,13.81,0,0,0,4,7.74,1.43,1.43,0,0,1,.46,1,1.14,1.14,0,0,1-1.13,1.12,1.26,1.26,0,0,1-.91-.41,17.41,17.41,0,0,1-4.46-9.44Zm4.28-1.87c.42,0,.58-.14.58-.54v-2.5c0-.4-.14-.54-.58-.54h-3.69c-.43,0-.57.14-.57.54v3Z" transform="translate(-263.89 -268.03)"/><path class="cls-1" d="M536.62,314.33a18.89,18.89,0,0,1-1.14,5.61,1.07,1.07,0,0,1-1,.71,1,1,0,0,1-1-.95,1.47,1.47,0,0,1,.1-.47c.77-1.9,1.21-4.41,1.21-10.78V304.8c0-1.37.57-2.06,2.23-2.06h1.3c1.66,0,2.21.69,2.21,2.06v13.66c0,1.56-.75,2.11-2,2.11a9.67,9.67,0,0,1-1-.08,1,1,0,0,1-.93-1,1,1,0,0,1,1-1l.16,0a4.91,4.91,0,0,0,.53,0c.2,0,.3-.1.3-.38v-3.77Zm1.88-4.84h-1.7c0,1,0,2-.08,3.06h1.78Zm0-4.28c0-.41-.1-.53-.48-.53h-.75c-.37,0-.47.12-.47.53v2.49h1.7Zm10.3,4.8c1.28,0,2.07.61,2.07,1.62a2.68,2.68,0,0,1-.27,1.12,14.21,14.21,0,0,1-2.33,3.75,14.25,14.25,0,0,0,3.33,2.17,1.12,1.12,0,0,1,.71,1,1.08,1.08,0,0,1-1.08,1.07,1.29,1.29,0,0,1-.57-.14,14.78,14.78,0,0,1-3.79-2.69,16.12,16.12,0,0,1-4.66,2.9,1.17,1.17,0,0,1-.5.1,1,1,0,0,1-1-1,1,1,0,0,1,.71-.95,14.09,14.09,0,0,0,4.1-2.53,15.41,15.41,0,0,1-2.52-4.6h-.75a.86.86,0,0,1-.81-.94.85.85,0,0,1,.81-.91h3.25v-2.49H542a1,1,0,0,1,0-1.87h3.53v-2.59c0-.61.54-.89,1.09-.89s1.08.28,1.08.89v2.59h3.7c.53,0,.77.47.77.94s-.24.93-.77.93h-3.7V310Zm-3.75,1.85a11.42,11.42,0,0,0,1.82,3.18,11.22,11.22,0,0,0,1.63-2.72.61.61,0,0,0,.06-.22c0-.18-.15-.24-.45-.24Z" transform="translate(-263.89 -268.03)"/><path class="cls-1" d="M555.85,307.84a.45.45,0,0,1-.45-.48.4.4,0,0,1,.21-.35c.87-.5,1.27-.93,1.27-1.68,0-.26-.06-.32-.36-.32a1.33,1.33,0,0,1-1.36-1.4,1.47,1.47,0,0,1,1.58-1.48c1,0,1.74.77,1.74,2.17a3.86,3.86,0,0,1-2.14,3.38A1.2,1.2,0,0,1,555.85,307.84Zm4.21,0a.46.46,0,0,1-.46-.48.41.41,0,0,1,.22-.35c.85-.48,1.28-.93,1.28-1.68,0-.26-.06-.32-.37-.32a1.33,1.33,0,0,1-1.35-1.4,1.46,1.46,0,0,1,1.58-1.48c.95,0,1.74.77,1.74,2.17a3.84,3.84,0,0,1-2.17,3.38A1,1,0,0,1,560.06,307.84Z" transform="translate(-263.89 -268.03)"/></svg>