<svg width="141" height="40" viewBox="0 0 141 40" fill="none" xmlns="http://www.w3.org/2000/svg">
<rect width="141" height="40" rx="20" fill="#333333"/>
<path d="M24 12.4001C26.5333 12.4001 26.8 12.4001 27.7333 12.4001C28.6666 12.4001 29.2 12.5334 29.4666 12.6667C29.8666 12.8001 30.2666 13.0667 30.5333 13.3334C30.8 13.6001 31.0666 14.0001 31.2 14.4001C31.3333 14.6667 31.4666 15.2001 31.4666 16.1334C31.4666 17.0667 31.4666 17.4667 31.4666 19.8667C31.4666 22.2667 31.4666 22.6667 31.4666 23.6001C31.4666 24.5334 31.3333 25.0667 31.2 25.3334C31.0666 25.7334 30.8 26.1334 30.5333 26.4001C30.2666 26.6667 29.8666 26.9334 29.4666 27.0667C29.2 27.2001 28.6666 27.3334 27.7333 27.3334C26.8 27.3334 26.4 27.3334 24 27.3334C21.6 27.3334 21.2 27.3334 20.2666 27.3334C19.3333 27.3334 18.8 27.2001 18.5333 27.0667C18.1333 26.9334 17.7333 26.6667 17.4666 26.4001C17.2 26.1334 16.9333 25.7334 16.8 25.3334C16.6666 25.0667 16.5333 24.5334 16.5333 23.6001C16.5333 22.6667 16.5333 22.2667 16.5333 19.8667C16.5333 17.4667 16.5333 17.0667 16.5333 16.1334C16.5333 15.2001 16.6666 14.6667 16.8 14.4001C16.9333 14.0001 17.2 13.6001 17.4666 13.3334C17.7333 13.0667 18.1333 12.8001 18.5333 12.6667C18.8 12.5334 19.3333 12.4001 20.2666 12.4001C21.2 12.4001 21.4666 12.4001 24 12.4001ZM24 10.6667C21.4666 10.6667 21.2 10.6667 20.1333 10.6667C19.2 10.6667 18.4 10.9334 17.8666 11.0667C17.3333 11.3334 16.8 11.7334 16.2666 12.2667C15.7333 12.8001 15.3333 13.3334 15.2 13.8667C14.9333 14.5334 14.8 15.2001 14.6666 16.1334C14.6666 17.0667 14.6666 17.4667 14.6666 20.0001C14.6666 22.5334 14.6666 22.8001 14.6666 23.8667C14.6666 24.8001 14.9333 25.6001 15.0666 26.1334C15.3333 26.8001 15.6 27.3334 16.1333 27.7334C16.6666 28.2667 17.2 28.5334 17.7333 28.8001C18.2666 29.0667 19.0666 29.2001 20 29.2001C20.9333 29.2001 21.3333 29.2001 23.8666 29.2001C26.4 29.2001 26.6666 29.2001 27.7333 29.2001C28.6666 29.2001 29.4666 28.9334 30 28.8001C30.6666 28.5334 31.2 28.2667 31.6 27.7334C32.1333 27.2001 32.4 26.6667 32.6666 26.1334C32.9333 25.6001 33.0666 24.8001 33.0666 23.8667C33.0666 22.9334 33.0666 22.5334 33.0666 20.0001C33.0666 17.4667 33.0666 17.2001 33.0666 16.1334C33.0666 15.2001 32.8 14.4001 32.6666 13.8667C32.4 13.2001 32.1333 12.6667 31.6 12.2667C31.0666 11.7334 30.5333 11.4667 30 11.2001C29.4666 10.9334 28.6666 10.8001 27.7333 10.8001C26.8 10.6667 26.5333 10.6667 24 10.6667Z" fill="white"/>
<path d="M23.9999 15.2C21.3333 15.2 19.2 17.3333 19.2 19.9999C19.2 22.6666 21.3333 24.7999 23.9999 24.7999C26.6666 24.7999 28.7999 22.6666 28.7999 19.9999C28.7999 17.3333 26.6666 15.2 23.9999 15.2ZM23.9999 23.0666C22.2666 23.0666 20.9333 21.7333 20.9333 19.9999C20.9333 18.2666 22.2666 16.9333 23.9999 16.9333C25.7333 16.9333 27.0666 18.2666 27.0666 19.9999C27.0666 21.7333 25.7333 23.0666 23.9999 23.0666Z" fill="white"/>
<path d="M28.9332 16.1333C29.5224 16.1333 29.9999 15.6558 29.9999 15.0667C29.9999 14.4776 29.5224 14 28.9332 14C28.3441 14 27.8666 14.4776 27.8666 15.0667C27.8666 15.6558 28.3441 16.1333 28.9332 16.1333Z" fill="black"/>
<path d="M45.952 14.43H39.47V24.748H40.688V19.82H44.664V18.798H40.688V15.452H45.952V14.43ZM51.4912 14.248C49.0412 14.248 47.2352 16.208 47.2352 19.61C47.2352 22.998 49.0132 24.944 51.4912 24.944C53.9552 24.944 55.7472 22.97 55.7472 19.582C55.7472 16.18 53.9692 14.248 51.4912 14.248ZM51.4912 15.256C53.2552 15.256 54.4592 16.74 54.4592 19.596C54.4592 22.438 53.2552 23.936 51.4912 23.936C49.7412 23.936 48.5232 22.438 48.5232 19.596C48.5232 16.74 49.7412 15.256 51.4912 15.256ZM59.3091 14.43H58.0911V24.748H64.4191V23.712H59.3091V14.43ZM67.6489 14.43H66.4309V24.748H72.7589V23.712H67.6489V14.43ZM78.2881 14.248C75.8381 14.248 74.0321 16.208 74.0321 19.61C74.0321 22.998 75.8101 24.944 78.2881 24.944C80.7521 24.944 82.5441 22.97 82.5441 19.582C82.5441 16.18 80.7661 14.248 78.2881 14.248ZM78.2881 15.256C80.0521 15.256 81.2561 16.74 81.2561 19.596C81.2561 22.438 80.0521 23.936 78.2881 23.936C76.5381 23.936 75.3201 22.438 75.3201 19.596C75.3201 16.74 76.5381 15.256 78.2881 15.256ZM95.7149 14.43H94.5109L93.2789 20.296C93.0409 21.458 92.9149 22.354 92.6769 23.586H92.4389C92.2149 22.354 92.0469 21.43 91.8229 20.338L90.5769 14.43H88.8829L87.6089 20.254C87.3709 21.36 87.1889 22.452 86.9789 23.586H86.7409C86.5729 22.438 86.4049 21.346 86.1669 20.198L84.9909 14.43H83.7309L86.0269 24.748H87.6369L88.9529 18.868C89.2189 17.692 89.3869 16.684 89.5689 15.522H89.8069C90.0169 16.684 90.1849 17.678 90.4509 18.896L91.6969 24.748H93.3069L95.7149 14.43ZM109.125 14.43H107.977V21.262C107.977 23.138 106.983 23.936 105.429 23.936C103.875 23.936 102.881 23.138 102.881 21.262V14.43H101.663V21.304C101.663 23.81 103.245 24.944 105.401 24.944C107.543 24.944 109.125 23.782 109.125 21.304V14.43ZM118.34 16.698C117.794 15.018 116.576 14.248 114.91 14.248C112.768 14.248 111.648 15.536 111.648 16.964C111.648 18.49 112.334 19.33 114.574 19.932L114.98 20.058C116.884 20.562 117.29 21.08 117.29 22.144C117.29 23.194 116.562 23.95 114.952 23.95C113.762 23.95 112.796 23.278 112.46 21.934L111.256 22.354C111.76 24.062 113.076 24.944 114.98 24.944C117.276 24.944 118.536 23.754 118.536 22.004C118.536 20.52 117.92 19.638 115.456 19.008L115.008 18.882C113.384 18.476 112.866 17.986 112.866 16.908C112.866 15.9 113.65 15.242 114.938 15.242C115.988 15.242 116.758 15.802 117.122 17.062L118.34 16.698ZM122.413 14.43H120.929L121.209 21.864H122.105L122.413 14.43ZM122.427 23.25H120.901V24.748H122.427V23.25Z" fill="white"/>
</svg>
