<svg width="70" height="13" viewBox="0 0 70 13" fill="none" xmlns="http://www.w3.org/2000/svg">
<path d="M4.36719 7.64844H7.28906L5.85156 3.11719L4.36719 7.64844ZM4.51562 0.484375H7.23438L11.3125 12H8.70312L7.96094 9.63281H3.71875L2.92188 12H0.40625L4.51562 0.484375ZM18.3172 2.48438V5.02344H21.1453C21.6505 5.02344 22.0594 4.92969 22.3719 4.74219C22.6896 4.54948 22.8484 4.21094 22.8484 3.72656C22.8484 3.1901 22.6401 2.83594 22.2234 2.66406C21.8641 2.54427 21.4057 2.48438 20.8484 2.48438H18.3172ZM18.3172 6.92969V10H21.1453C21.6505 10 22.0437 9.93229 22.325 9.79688C22.8354 9.54688 23.0906 9.06771 23.0906 8.35938C23.0906 7.76042 22.8432 7.34896 22.3484 7.125C22.0724 7 21.6844 6.9349 21.1844 6.92969H18.3172ZM21.6141 0.484375C23.0255 0.505208 24.0255 0.914062 24.6141 1.71094C24.9682 2.20052 25.1453 2.78646 25.1453 3.46875C25.1453 4.17188 24.9682 4.73698 24.6141 5.16406C24.4161 5.40365 24.1245 5.6224 23.7391 5.82031C24.3276 6.03385 24.7703 6.3724 25.0672 6.83594C25.3693 7.29948 25.5203 7.86198 25.5203 8.52344C25.5203 9.20573 25.3484 9.81771 25.0047 10.3594C24.7859 10.7188 24.5125 11.0208 24.1844 11.2656C23.8146 11.5469 23.3771 11.7396 22.8719 11.8438C22.3719 11.9479 21.8276 12 21.2391 12H16.0203V0.484375H21.6141ZM35.8375 10.2812C36.7906 10.2812 37.5458 9.92969 38.1031 9.22656C38.6656 8.52344 38.9469 7.52344 38.9469 6.22656C38.9469 4.9349 38.6656 3.9375 38.1031 3.23438C37.5458 2.52604 36.7906 2.17188 35.8375 2.17188C34.8844 2.17188 34.124 2.52344 33.5562 3.22656C32.9885 3.92969 32.7047 4.92969 32.7047 6.22656C32.7047 7.52344 32.9885 8.52344 33.5562 9.22656C34.124 9.92969 34.8844 10.2812 35.8375 10.2812ZM41.3531 6.22656C41.3531 8.29427 40.7724 9.8776 39.6109 10.9766C38.7411 11.8724 37.4833 12.3203 35.8375 12.3203C34.1917 12.3203 32.9339 11.8724 32.0641 10.9766C30.8974 9.8776 30.3141 8.29427 30.3141 6.22656C30.3141 4.11719 30.8974 2.53385 32.0641 1.47656C32.9339 0.580729 34.1917 0.132812 35.8375 0.132812C37.4833 0.132812 38.7411 0.580729 39.6109 1.47656C40.7724 2.53385 41.3531 4.11719 41.3531 6.22656ZM46.3969 0.484375H48.8422V7.5625C48.8422 8.35417 48.9359 8.93229 49.1234 9.29688C49.4151 9.94271 50.0505 10.2656 51.0297 10.2656C52.0036 10.2656 52.6365 9.94271 52.9281 9.29688C53.1156 8.93229 53.2094 8.35417 53.2094 7.5625V0.484375H55.6547V7.5625C55.6547 8.78646 55.4646 9.73958 55.0844 10.4219C54.376 11.6719 53.0245 12.2969 51.0297 12.2969C49.0349 12.2969 47.6807 11.6719 46.9672 10.4219C46.587 9.73958 46.3969 8.78646 46.3969 7.5625V0.484375ZM69.5266 0.484375V2.52344H66.0812V12H63.6594V2.52344H60.1984V0.484375H69.5266Z" fill="#333333"/>
</svg>
