<svg width="97" height="13" viewBox="0 0 97 13" fill="none" xmlns="http://www.w3.org/2000/svg">
<path d="M0.71875 6.33594C0.71875 4.32552 1.25781 2.77604 2.33594 1.6875C3.27344 0.739583 4.46615 0.265625 5.91406 0.265625C7.85156 0.265625 9.26823 0.901042 10.1641 2.17188C10.6589 2.88542 10.9245 3.60156 10.9609 4.32031H8.55469C8.39844 3.76823 8.19792 3.35156 7.95312 3.07031C7.51562 2.57031 6.86719 2.32031 6.00781 2.32031C5.13281 2.32031 4.44271 2.67448 3.9375 3.38281C3.43229 4.08594 3.17969 5.08333 3.17969 6.375C3.17969 7.66667 3.44531 8.63542 3.97656 9.28125C4.51302 9.92188 5.19271 10.2422 6.01562 10.2422C6.85938 10.2422 7.5026 9.96615 7.94531 9.41406C8.1901 9.11719 8.39323 8.67188 8.55469 8.07812H10.9375C10.7292 9.33333 10.1953 10.3542 9.33594 11.1406C8.48177 11.9271 7.38542 12.3203 6.04688 12.3203C4.39062 12.3203 3.08854 11.7891 2.14062 10.7266C1.19271 9.65885 0.71875 8.19531 0.71875 6.33594ZM21.075 10.2812C22.0281 10.2812 22.7833 9.92969 23.3406 9.22656C23.9031 8.52344 24.1844 7.52344 24.1844 6.22656C24.1844 4.9349 23.9031 3.9375 23.3406 3.23438C22.7833 2.52604 22.0281 2.17188 21.075 2.17188C20.1219 2.17188 19.3615 2.52344 18.7937 3.22656C18.226 3.92969 17.9422 4.92969 17.9422 6.22656C17.9422 7.52344 18.226 8.52344 18.7937 9.22656C19.3615 9.92969 20.1219 10.2812 21.075 10.2812ZM26.5906 6.22656C26.5906 8.29427 26.0099 9.8776 24.8484 10.9766C23.9786 11.8724 22.7208 12.3203 21.075 12.3203C19.4292 12.3203 18.1714 11.8724 17.3016 10.9766C16.1349 9.8776 15.5516 8.29427 15.5516 6.22656C15.5516 4.11719 16.1349 2.53385 17.3016 1.47656C18.1714 0.580729 19.4292 0.132812 21.075 0.132812C22.7208 0.132812 23.9786 0.580729 24.8484 1.47656C26.0099 2.53385 26.5906 4.11719 26.5906 6.22656ZM31.5953 0.484375H34.1187L38.7047 8.52344V0.484375H40.9469V12H38.5406L33.8375 3.82031V12H31.5953V0.484375ZM54.7641 0.484375V2.52344H51.3187V12H48.8969V2.52344H45.4359V0.484375H54.7641ZM61.3391 7.64844H64.2609L62.8234 3.11719L61.3391 7.64844ZM61.4875 0.484375H64.2062L68.2844 12H65.675L64.9328 9.63281H60.6906L59.8937 12H57.3781L61.4875 0.484375ZM72.4531 6.33594C72.4531 4.32552 72.9922 2.77604 74.0703 1.6875C75.0078 0.739583 76.2005 0.265625 77.6484 0.265625C79.5859 0.265625 81.0026 0.901042 81.8984 2.17188C82.3932 2.88542 82.6589 3.60156 82.6953 4.32031H80.2891C80.1328 3.76823 79.9323 3.35156 79.6875 3.07031C79.25 2.57031 78.6016 2.32031 77.7422 2.32031C76.8672 2.32031 76.1771 2.67448 75.6719 3.38281C75.1667 4.08594 74.9141 5.08333 74.9141 6.375C74.9141 7.66667 75.1797 8.63542 75.7109 9.28125C76.2474 9.92188 76.9271 10.2422 77.75 10.2422C78.5938 10.2422 79.237 9.96615 79.6797 9.41406C79.9245 9.11719 80.1276 8.67188 80.2891 8.07812H82.6719C82.4635 9.33333 81.9297 10.3542 81.0703 11.1406C80.2161 11.9271 79.1198 12.3203 77.7812 12.3203C76.125 12.3203 74.8229 11.7891 73.875 10.7266C72.9271 9.65885 72.4531 8.19531 72.4531 6.33594ZM96.0828 0.484375V2.52344H92.6375V12H90.2156V2.52344H86.7547V0.484375H96.0828Z" fill="#333333"/>
</svg>
