<svg width="107" height="13" viewBox="0 0 107 13" fill="none" xmlns="http://www.w3.org/2000/svg">
<path d="M7.85156 0.484375H11.3125V12H9.07031V4.21094C9.07031 3.98698 9.07292 3.67448 9.07812 3.27344C9.08333 2.86719 9.08594 2.55469 9.08594 2.33594L6.90625 12H4.57031L2.40625 2.33594C2.40625 2.55469 2.40885 2.86719 2.41406 3.27344C2.41927 3.67448 2.42188 3.98698 2.42188 4.21094V12H0.179688V0.484375H3.67969L5.77344 9.53906L7.85156 0.484375ZM19.8953 7.64844H22.8172L21.3797 3.11719L19.8953 7.64844ZM20.0438 0.484375H22.7625L26.8406 12H24.2313L23.4891 9.63281H19.2469L18.45 12H15.9344L20.0438 0.484375ZM39.2516 4.07812C39.0693 3.29167 38.624 2.74219 37.9156 2.42969C37.5198 2.25781 37.0797 2.17188 36.5953 2.17188C35.6682 2.17188 34.9052 2.52344 34.3062 3.22656C33.7125 3.92448 33.4156 4.97656 33.4156 6.38281C33.4156 7.79948 33.7385 8.80208 34.3844 9.39062C35.0302 9.97917 35.7646 10.2734 36.5875 10.2734C37.3948 10.2734 38.0562 10.0417 38.5719 9.57812C39.0875 9.10938 39.4052 8.4974 39.525 7.74219H36.8609V5.82031H41.6578V12H40.0641L39.8219 10.5625C39.3583 11.1094 38.9417 11.4948 38.5719 11.7188C37.9365 12.1094 37.1552 12.3047 36.2281 12.3047C34.7021 12.3047 33.4521 11.776 32.4781 10.7188C31.4625 9.65625 30.9547 8.20312 30.9547 6.35938C30.9547 4.49479 31.4677 3 32.4937 1.875C33.5198 0.75 34.8766 0.1875 36.5641 0.1875C38.0276 0.1875 39.2021 0.559896 40.0875 1.30469C40.9781 2.04427 41.4885 2.96875 41.6187 4.07812H39.2516ZM50.3109 7.64844H53.2328L51.7953 3.11719L50.3109 7.64844ZM50.4594 0.484375H53.1781L57.2562 12H54.6469L53.9047 9.63281H49.6625L48.8656 12H46.35L50.4594 0.484375ZM61.1125 9.96875L67.0578 2.52344H61.2609V0.484375H70.0578V2.41406L64.0344 9.96875H70.0734V12H61.1125V9.96875ZM77.1094 12H74.7188V0.484375H77.1094V12ZM82.5203 0.484375H85.0437L89.6297 8.52344V0.484375H91.8719V12H89.4656L84.7625 3.82031V12H82.5203V0.484375ZM105.838 2.52344H99.7438V4.96875H105.338V6.96875H99.7438V9.92969H106.119V12H97.3922V0.484375H105.838V2.52344Z" fill="#333333"/>
</svg>
