<svg width="111" height="13" viewBox="0 0 111 13" fill="none" xmlns="http://www.w3.org/2000/svg">
<path d="M6.70312 4.14844C6.70312 3.54948 6.54427 3.1224 6.22656 2.86719C5.91406 2.61198 5.47396 2.48438 4.90625 2.48438H2.66406V5.875H4.90625C5.47396 5.875 5.91406 5.73698 6.22656 5.46094C6.54427 5.1849 6.70312 4.7474 6.70312 4.14844ZM9.08594 4.13281C9.08594 5.49219 8.74219 6.45312 8.05469 7.01562C7.36719 7.57812 6.38542 7.85938 5.10938 7.85938H2.66406V12H0.273438V0.484375H5.28906C6.44531 0.484375 7.36719 0.78125 8.05469 1.375C8.74219 1.96875 9.08594 2.88802 9.08594 4.13281ZM16.4969 2.48438V5.57812H19.2234C19.7651 5.57812 20.1714 5.51562 20.4422 5.39062C20.9214 5.17188 21.1609 4.73958 21.1609 4.09375C21.1609 3.39583 20.9292 2.92708 20.4656 2.6875C20.2052 2.55208 19.8146 2.48438 19.2937 2.48438H16.4969ZM19.7937 0.484375C20.601 0.5 21.2208 0.598958 21.6531 0.78125C22.0906 0.963542 22.4604 1.23177 22.7625 1.58594C23.0125 1.8776 23.2104 2.20052 23.3562 2.55469C23.5021 2.90885 23.575 3.3125 23.575 3.76562C23.575 4.3125 23.437 4.85156 23.1609 5.38281C22.8849 5.90885 22.4292 6.28125 21.7937 6.5C22.325 6.71354 22.7 7.01823 22.9187 7.41406C23.1427 7.80469 23.2547 8.40365 23.2547 9.21094V9.98438C23.2547 10.5104 23.2755 10.8672 23.3172 11.0547C23.3797 11.3516 23.5255 11.5703 23.7547 11.7109V12H21.1062C21.0333 11.7448 20.9812 11.5391 20.95 11.3828C20.8875 11.0599 20.8536 10.7292 20.8484 10.3906L20.8328 9.32031C20.8224 8.58594 20.687 8.09635 20.4266 7.85156C20.1714 7.60677 19.6896 7.48438 18.9812 7.48438H16.4969V12H14.1453V0.484375H19.7937ZM33.9469 10.2812C34.9 10.2812 35.6552 9.92969 36.2125 9.22656C36.775 8.52344 37.0562 7.52344 37.0562 6.22656C37.0562 4.9349 36.775 3.9375 36.2125 3.23438C35.6552 2.52604 34.9 2.17188 33.9469 2.17188C32.9937 2.17188 32.2333 2.52344 31.6656 3.22656C31.0979 3.92969 30.8141 4.92969 30.8141 6.22656C30.8141 7.52344 31.0979 8.52344 31.6656 9.22656C32.2333 9.92969 32.9937 10.2812 33.9469 10.2812ZM39.4625 6.22656C39.4625 8.29427 38.8818 9.8776 37.7203 10.9766C36.8505 11.8724 35.5927 12.3203 33.9469 12.3203C32.301 12.3203 31.0432 11.8724 30.1734 10.9766C29.0068 9.8776 28.4234 8.29427 28.4234 6.22656C28.4234 4.11719 29.0068 2.53385 30.1734 1.47656C31.0432 0.580729 32.301 0.132812 33.9469 0.132812C35.5927 0.132812 36.8505 0.580729 37.7203 1.47656C38.8818 2.53385 39.4625 4.11719 39.4625 6.22656ZM46.8422 2.48438V10H49.0609C50.1964 10 50.988 9.4401 51.4359 8.32031C51.6807 7.70573 51.8031 6.97396 51.8031 6.125C51.8031 4.95312 51.6182 4.05469 51.2484 3.42969C50.8839 2.79948 50.1547 2.48438 49.0609 2.48438H46.8422ZM49.4672 0.484375C50.1807 0.494792 50.7745 0.578125 51.2484 0.734375C52.0557 1 52.7094 1.48698 53.2094 2.19531C53.6104 2.76823 53.8839 3.38802 54.0297 4.05469C54.1755 4.72135 54.2484 5.35677 54.2484 5.96094C54.2484 7.49219 53.9411 8.78906 53.3266 9.85156C52.4932 11.2839 51.2068 12 49.4672 12H44.5062V0.484375H49.4672ZM59.2687 0.484375H61.7141V7.5625C61.7141 8.35417 61.8078 8.93229 61.9953 9.29688C62.287 9.94271 62.9224 10.2656 63.9016 10.2656C64.8755 10.2656 65.5083 9.94271 65.8 9.29688C65.9875 8.93229 66.0812 8.35417 66.0812 7.5625V0.484375H68.5266V7.5625C68.5266 8.78646 68.3365 9.73958 67.9562 10.4219C67.2479 11.6719 65.8964 12.2969 63.9016 12.2969C61.9068 12.2969 60.5526 11.6719 59.8391 10.4219C59.4589 9.73958 59.2687 8.78646 59.2687 7.5625V0.484375ZM73.5312 6.33594C73.5312 4.32552 74.0703 2.77604 75.1484 1.6875C76.0859 0.739583 77.2786 0.265625 78.7266 0.265625C80.6641 0.265625 82.0807 0.901042 82.9766 2.17188C83.4714 2.88542 83.737 3.60156 83.7734 4.32031H81.3672C81.2109 3.76823 81.0104 3.35156 80.7656 3.07031C80.3281 2.57031 79.6797 2.32031 78.8203 2.32031C77.9453 2.32031 77.2552 2.67448 76.75 3.38281C76.2448 4.08594 75.9922 5.08333 75.9922 6.375C75.9922 7.66667 76.2578 8.63542 76.7891 9.28125C77.3255 9.92188 78.0052 10.2422 78.8281 10.2422C79.6719 10.2422 80.3151 9.96615 80.7578 9.41406C81.0026 9.11719 81.2057 8.67188 81.3672 8.07812H83.75C83.5417 9.33333 83.0078 10.3542 82.1484 11.1406C81.2943 11.9271 80.1979 12.3203 78.8594 12.3203C77.2031 12.3203 75.901 11.7891 74.9531 10.7266C74.0052 9.65885 73.5312 8.19531 73.5312 6.33594ZM97.1609 0.484375V2.52344H93.7156V12H91.2937V2.52344H87.8328V0.484375H97.1609ZM103.517 8.44531C103.59 8.97135 103.733 9.36458 103.947 9.625C104.338 10.099 105.007 10.3359 105.955 10.3359C106.522 10.3359 106.983 10.2734 107.338 10.1484C108.009 9.90885 108.345 9.46354 108.345 8.8125C108.345 8.43229 108.179 8.13802 107.845 7.92969C107.512 7.72656 106.989 7.54688 106.275 7.39062L105.056 7.11719C103.858 6.84635 103.03 6.55208 102.572 6.23438C101.796 5.70312 101.408 4.8724 101.408 3.74219C101.408 2.71094 101.783 1.85417 102.533 1.17188C103.283 0.489583 104.384 0.148438 105.838 0.148438C107.051 0.148438 108.085 0.471354 108.939 1.11719C109.798 1.75781 110.249 2.6901 110.291 3.91406H107.978C107.936 3.22135 107.634 2.72917 107.072 2.4375C106.697 2.24479 106.231 2.14844 105.673 2.14844C105.054 2.14844 104.559 2.27344 104.189 2.52344C103.819 2.77344 103.634 3.1224 103.634 3.57031C103.634 3.98177 103.817 4.28906 104.181 4.49219C104.416 4.6276 104.916 4.78646 105.681 4.96875L107.666 5.44531C108.535 5.65365 109.192 5.93229 109.634 6.28125C110.322 6.82292 110.666 7.60677 110.666 8.63281C110.666 9.6849 110.262 10.5599 109.455 11.2578C108.653 11.9505 107.517 12.2969 106.048 12.2969C104.548 12.2969 103.369 11.9557 102.509 11.2734C101.65 10.5859 101.22 9.64323 101.22 8.44531H103.517Z" fill="#333333"/>
</svg>
