<svg width="78" height="13" viewBox="0 0 78 13" fill="none" xmlns="http://www.w3.org/2000/svg">
<path d="M2.625 2.48438V5.57812H5.35156C5.89323 5.57812 6.29948 5.51562 6.57031 5.39062C7.04948 5.17188 7.28906 4.73958 7.28906 4.09375C7.28906 3.39583 7.05729 2.92708 6.59375 2.6875C6.33333 2.55208 5.94271 2.48438 5.42188 2.48438H2.625ZM5.92188 0.484375C6.72917 0.5 7.34896 0.598958 7.78125 0.78125C8.21875 0.963542 8.58854 1.23177 8.89062 1.58594C9.14062 1.8776 9.33854 2.20052 9.48438 2.55469C9.63021 2.90885 9.70312 3.3125 9.70312 3.76562C9.70312 4.3125 9.5651 4.85156 9.28906 5.38281C9.01302 5.90885 8.55729 6.28125 7.92188 6.5C8.45312 6.71354 8.82812 7.01823 9.04688 7.41406C9.27083 7.80469 9.38281 8.40365 9.38281 9.21094V9.98438C9.38281 10.5104 9.40365 10.8672 9.44531 11.0547C9.50781 11.3516 9.65365 11.5703 9.88281 11.7109V12H7.23438C7.16146 11.7448 7.10938 11.5391 7.07812 11.3828C7.01562 11.0599 6.98177 10.7292 6.97656 10.3906L6.96094 9.32031C6.95052 8.58594 6.8151 8.09635 6.55469 7.85156C6.29948 7.60677 5.81771 7.48438 5.10938 7.48438H2.625V12H0.273438V0.484375H5.92188ZM23.4969 2.52344H17.4031V4.96875H22.9969V6.96875H17.4031V9.92969H23.7781V12H15.0516V0.484375H23.4969V2.52344ZM30.5953 8.44531C30.6682 8.97135 30.8115 9.36458 31.025 9.625C31.4156 10.099 32.0849 10.3359 33.0328 10.3359C33.6005 10.3359 34.0615 10.2734 34.4156 10.1484C35.0875 9.90885 35.4234 9.46354 35.4234 8.8125C35.4234 8.43229 35.2568 8.13802 34.9234 7.92969C34.5901 7.72656 34.0667 7.54688 33.3531 7.39062L32.1344 7.11719C30.9365 6.84635 30.1083 6.55208 29.65 6.23438C28.874 5.70312 28.4859 4.8724 28.4859 3.74219C28.4859 2.71094 28.8609 1.85417 29.6109 1.17188C30.3609 0.489583 31.4625 0.148438 32.9156 0.148438C34.1292 0.148438 35.163 0.471354 36.0172 1.11719C36.8766 1.75781 37.3271 2.6901 37.3687 3.91406H35.0562C35.0146 3.22135 34.7125 2.72917 34.15 2.4375C33.775 2.24479 33.3089 2.14844 32.7516 2.14844C32.1318 2.14844 31.637 2.27344 31.2672 2.52344C30.8974 2.77344 30.7125 3.1224 30.7125 3.57031C30.7125 3.98177 30.8948 4.28906 31.2594 4.49219C31.4937 4.6276 31.9937 4.78646 32.7594 4.96875L34.7437 5.44531C35.6135 5.65365 36.2698 5.93229 36.7125 6.28125C37.4 6.82292 37.7437 7.60677 37.7437 8.63281C37.7437 9.6849 37.3401 10.5599 36.5328 11.2578C35.7307 11.9505 34.5953 12.2969 33.1266 12.2969C31.6266 12.2969 30.4469 11.9557 29.5875 11.2734C28.7281 10.5859 28.2984 9.64323 28.2984 8.44531H30.5953ZM42.725 0.484375H45.1703V7.5625C45.1703 8.35417 45.2641 8.93229 45.4516 9.29688C45.7432 9.94271 46.3786 10.2656 47.3578 10.2656C48.3318 10.2656 48.9646 9.94271 49.2562 9.29688C49.4437 8.93229 49.5375 8.35417 49.5375 7.5625V0.484375H51.9828V7.5625C51.9828 8.78646 51.7927 9.73958 51.4125 10.4219C50.7042 11.6719 49.3526 12.2969 47.3578 12.2969C45.363 12.2969 44.0089 11.6719 43.2953 10.4219C42.9151 9.73958 42.725 8.78646 42.725 7.5625V0.484375ZM57.4875 0.484375H59.8937V9.92969H65.5969V12H57.4875V0.484375ZM77.6484 0.484375V2.52344H74.2031V12H71.7812V2.52344H68.3203V0.484375H77.6484Z" fill="#333333"/>
</svg>
