<svg xmlns="http://www.w3.org/2000/svg" viewBox="0 0 125.25 26.38"><defs><style>.cls-1{fill:#333;}</style></defs><g id="レイヤー_2" data-name="レイヤー 2"><g id="レイヤー_1-2" data-name="レイヤー 1"><path class="cls-1" d="M15.09,1.7l8.14,23H18L16.5,20H8L6.45,24.73h-5l8.22-23h5.45M9.32,16h5.9L12.31,7,9.32,16M15.79.7H8.94l-.24.67L.48,24.4,0,25.73H7.18l.22-.68L8.74,21h7l1.29,4,.23.69h7.36l-.47-1.33L16,1.37,15.79.7ZM10.71,15,12.3,10.2,13.85,15Z"/><path class="cls-1" d="M39.93,1.7c2.81.05,4.8.86,6,2.46A5.82,5.82,0,0,1,47,7.67a5.12,5.12,0,0,1-1.07,3.39,5.6,5.6,0,0,1-1.75,1.32,5.1,5.1,0,0,1,2.66,2,6.13,6.13,0,0,1,.89,3.37,6.73,6.73,0,0,1-1,3.67,6.27,6.27,0,0,1-4.24,3,15.8,15.8,0,0,1-3.25.31H28.8V1.7H39.93M33.4,10.78H39a4.64,4.64,0,0,0,2.44-.57,2.18,2.18,0,0,0,.94-2,2.08,2.08,0,0,0-1.24-2.13,8.65,8.65,0,0,0-2.72-.36h-5v5.08m0,10H39a5.45,5.45,0,0,0,2.33-.4,2.9,2.9,0,0,0,1.51-2.88A2.48,2.48,0,0,0,41.37,15a5.85,5.85,0,0,0-2.3-.39H33.4v6.14M39.94.7H27.8v25H39.18a17.22,17.22,0,0,0,3.46-.33,7.39,7.39,0,0,0,3-1.34A7.26,7.26,0,0,0,47.52,22a7.66,7.66,0,0,0,1.17-4.19,7.13,7.13,0,0,0-1-3.92,6,6,0,0,0-1.54-1.59,4.29,4.29,0,0,0,.56-.57,6.11,6.11,0,0,0,1.3-4,6.85,6.85,0,0,0-1.25-4.1C45.35,1.71,43.07.75,40,.7Zm-5.54,6h4a7.66,7.66,0,0,1,2.36.3c.31.14.6.38.6,1.19S41,9.28,40.91,9.36A3.72,3.72,0,0,1,39,9.78H34.4V6.7Zm0,8.89h4.67a5,5,0,0,1,1.88.3,1.47,1.47,0,0,1,.88,1.56c0,1.35-.54,1.78-.95,2a4.41,4.41,0,0,1-1.89.3H34.4V15.59Z"/><path class="cls-1" d="M64.58,1q4.94,0,7.55,2.69,3.48,3.17,3.48,9.5t-3.48,9.5q-2.61,2.68-7.55,2.69T57,22.69q-3.49-3.3-3.5-9.5T57,3.69Q59.64,1,64.58,1m0,20.3a5.51,5.51,0,0,0,4.54-2.11,9.44,9.44,0,0,0,1.68-6,9.41,9.41,0,0,0-1.68-6,5.47,5.47,0,0,0-4.54-2.12A5.54,5.54,0,0,0,60,7.19a9.28,9.28,0,0,0-1.7,6,9.32,9.32,0,0,0,1.7,6,5.56,5.56,0,0,0,4.56,2.11m0-21.3C61,0,58.26,1,56.34,3c-2.53,2.3-3.81,5.74-3.81,10.22S53.82,21,56.35,23.42c1.89,1.95,4.67,3,8.23,3s6.34-1,8.27-3c2.48-2.35,3.76-5.79,3.76-10.19S75.34,5.27,72.82,3c-1.92-2-4.69-3-8.24-3Zm0,20.3a4.56,4.56,0,0,1-3.78-1.74,8.38,8.38,0,0,1-1.48-5.37A8.36,8.36,0,0,1,60.8,7.82a4.56,4.56,0,0,1,3.78-1.74,4.51,4.51,0,0,1,3.76,1.74,8.53,8.53,0,0,1,1.46,5.37,8.49,8.49,0,0,1-1.46,5.37,4.51,4.51,0,0,1-3.76,1.74Z"/><path class="cls-1" d="M100.33,1.7V15.86a11.88,11.88,0,0,1-1.14,5.72q-2.11,3.75-8.1,3.75T83,21.58a11.88,11.88,0,0,1-1.14-5.72V1.7h4.9V15.85a7.89,7.89,0,0,0,.56,3.46c.58,1.29,1.84,1.94,3.79,1.94s3.21-.65,3.79-1.94a8,8,0,0,0,.56-3.46V1.7h4.89m1-1H94.44V15.85a7,7,0,0,1-.45,3v0c-.26.58-.85,1.35-2.88,1.35-2.28,0-2.73-1-2.88-1.35v0a6.86,6.86,0,0,1-.45-3V.7h-6.9V15.86a12.65,12.65,0,0,0,1.27,6.2c1.61,2.84,4.63,4.27,9,4.27s7.37-1.43,9-4.26a12.66,12.66,0,0,0,1.27-6.21V.7Z"/><path class="cls-1" d="M124.25,1.7V5.78h-6.89v19h-4.85V5.78h-6.92V1.7h18.66m1-1H104.59V6.78h6.92v19h6.85V6.78h6.89V.7Z"/></g></g></svg>