<svg xmlns="http://www.w3.org/2000/svg" viewBox="0 0 169.41 26.38"><defs><style>.cls-1{fill:#333;}</style></defs><g id="レイヤー_2" data-name="レイヤー 2"><g id="レイヤー_1-2" data-name="レイヤー 1"><path class="cls-1" d="M11.28,1.27q5.74,0,8.41,3.81a8.39,8.39,0,0,1,1.58,4.3H16.45a6.4,6.4,0,0,0-1.18-2.5,4.72,4.72,0,0,0-3.81-1.5A4.69,4.69,0,0,0,7.41,7.49a10.33,10.33,0,0,0-1.49,6c0,2.59.52,4.52,1.57,5.81a4.89,4.89,0,0,0,4,1.93,4.51,4.51,0,0,0,3.78-1.66,7.43,7.43,0,0,0,1.19-2.67h4.78A10.42,10.42,0,0,1,18.06,23a9.23,9.23,0,0,1-6.52,2.36,9.81,9.81,0,0,1-7.73-3.19Q1,19,1,13.41q0-6,3.2-9.3a9.46,9.46,0,0,1,7.08-2.84m0-1A10.46,10.46,0,0,0,3.49,3.41C1.17,5.77,0,9.13,0,13.41c0,3.95,1,7.13,3.06,9.44a10.79,10.79,0,0,0,8.48,3.53,10.23,10.23,0,0,0,7.2-2.63,11.43,11.43,0,0,0,3.47-6.7l.19-1.16H15.67l-.2.74a6.32,6.32,0,0,1-1,2.3,3.54,3.54,0,0,1-3,1.29,4,4,0,0,1-3.21-1.56c-.89-1.1-1.34-2.84-1.34-5.18A9.37,9.37,0,0,1,8.23,8.07a3.69,3.69,0,0,1,3.23-1.69,3.78,3.78,0,0,1,3.06,1.15,5.7,5.7,0,0,1,1,2.11l.2.74h6.63l-.06-1.06a9.35,9.35,0,0,0-1.75-4.81c-2-2.82-5.07-4.24-9.23-4.24Z"/><path class="cls-1" d="M37.86,1Q42.8,1,45.4,3.69q3.49,3.17,3.49,9.5t-3.49,9.5q-2.61,2.68-7.54,2.69t-7.55-2.69q-3.49-3.3-3.5-9.5t3.5-9.5Q32.92,1,37.86,1m0,20.3a5.53,5.53,0,0,0,4.54-2.11,9.44,9.44,0,0,0,1.68-6,9.41,9.41,0,0,0-1.68-6,5.48,5.48,0,0,0-4.54-2.12,5.57,5.57,0,0,0-4.57,2.11,9.34,9.34,0,0,0-1.7,6,9.38,9.38,0,0,0,1.7,6,5.6,5.6,0,0,0,4.57,2.11m0-21.3c-3.55,0-6.32,1-8.24,3-2.53,2.3-3.81,5.74-3.81,10.22S27.09,21,29.63,23.42c1.89,1.95,4.67,3,8.23,3s6.33-1,8.26-3c2.49-2.35,3.77-5.79,3.77-10.19S48.61,5.27,46.1,3c-1.93-2-4.7-3-8.24-3Zm0,20.3a4.58,4.58,0,0,1-3.79-1.74,8.44,8.44,0,0,1-1.48-5.37,8.42,8.42,0,0,1,1.48-5.37,4.58,4.58,0,0,1,3.79-1.74,4.49,4.49,0,0,1,3.75,1.74,8.52,8.52,0,0,1,1.47,5.37,8.49,8.49,0,0,1-1.47,5.37,4.48,4.48,0,0,1-3.75,1.74Z"/><path class="cls-1" d="M73.71,1.7v23H68.9L59.53,8.39V24.73H55V1.7h5.05l9.14,16.06V1.7h4.48m1-1H68.23V14L61,1.21,60.67.7H54v25h6.49V12.14L68,25.23l.29.5h6.39V.7Z"/><path class="cls-1" d="M97.52,1.7V5.78H90.63v19H85.79V5.78H78.87V1.7H97.52m1-1H77.87V6.78h6.92v19h6.84V6.78h6.89V.7Z"/><path class="cls-1" d="M112.37,1.7l8.15,23H115.3L113.78,20H105.3l-1.56,4.73h-5l8.22-23h5.45M106.61,16h5.89L109.59,7l-3,9.06M113.08.7h-6.86l-.24.67-8.22,23-.48,1.33h7.18l.23-.68L106,21h7l1.3,4,.22.69h7.36l-.47-1.33-8.15-23L113.08.7ZM108,15l1.59-4.83L111.13,15Z"/><path class="cls-1" d="M135.29,1.27q5.75,0,8.41,3.81a8.37,8.37,0,0,1,1.57,4.3h-4.81a6.54,6.54,0,0,0-1.18-2.5,4.75,4.75,0,0,0-3.81-1.5,4.69,4.69,0,0,0-4.06,2.11,10.34,10.34,0,0,0-1.48,6c0,2.59.52,4.52,1.56,5.81a4.92,4.92,0,0,0,4,1.93,4.49,4.49,0,0,0,3.77-1.66,7.1,7.1,0,0,0,1.19-2.67h4.78A10.37,10.37,0,0,1,142.06,23a9.19,9.19,0,0,1-6.51,2.36,9.78,9.78,0,0,1-7.73-3.19c-1.88-2.14-2.81-5.07-2.81-8.78q0-6,3.2-9.3a9.45,9.45,0,0,1,7.08-2.84m0-1a10.48,10.48,0,0,0-7.8,3.14c-2.31,2.36-3.48,5.72-3.48,10,0,3.95,1,7.13,3.06,9.44a10.77,10.77,0,0,0,8.48,3.53,10.21,10.21,0,0,0,7.19-2.63,11.37,11.37,0,0,0,3.47-6.7l.19-1.16h-6.73l-.19.74a6.31,6.31,0,0,1-1,2.3,3.53,3.53,0,0,1-3,1.29,3.92,3.92,0,0,1-3.21-1.56c-.89-1.1-1.34-2.84-1.34-5.18a9.45,9.45,0,0,1,1.3-5.41,4.23,4.23,0,0,1,6.29-.54,5.69,5.69,0,0,1,1,2.11l.2.74h6.62l0-1.06a9.35,9.35,0,0,0-1.75-4.81c-2-2.82-5.07-4.24-9.23-4.24Z"/><path class="cls-1" d="M168.41,1.7V5.78h-6.89v19h-4.85V5.78h-6.92V1.7h18.66m1-1H148.75V6.78h6.92v19h6.85V6.78h6.89V.7Z"/></g></g></svg>