<svg xmlns="http://www.w3.org/2000/svg" viewBox="0 0 186.9 26.22"><defs><style>.cls-1{fill:#333;}</style></defs><g id="レイヤー_2" data-name="レイヤー 2"><g id="レイヤー_1-2" data-name="レイヤー 1"><path class="cls-1" d="M23.28,1.59v23H18.8V9.05c0-.45,0-1.08,0-1.89s0-1.43,0-1.86L14.46,24.62H9.79L5.45,5.3c0,.43,0,1.06,0,1.86s0,1.44,0,1.89V24.62H1v-23H8L12.2,19.7,16.36,1.59h6.92m1-1H15.56l-.18.78L12.19,15.25,9,1.37,8.8.59H0v25H6.48V14.47L8.81,24.84l.18.78h6.27l.18-.78L17.8,14.4V25.62h6.48V.59Z"/><path class="cls-1" d="M42.33,1.59l8.14,23H45.25l-1.51-4.73H35.25l-1.56,4.73h-5l8.22-23h5.45M36.56,15.92h5.9L39.55,6.86l-3,9.06M43,.59H36.18l-.24.67-8.22,23-.48,1.33h7.18l.22-.68L36,20.89h7l1.29,4,.23.69h7.36l-.47-1.33-8.15-23L43,.59ZM38,14.92l1.59-4.83,1.55,4.83Z"/><path class="cls-1" d="M66.07,1a10.63,10.63,0,0,1,7.06,2.23,8.27,8.27,0,0,1,3.05,5.55H71.45a4.55,4.55,0,0,0-2.67-3.3A6.68,6.68,0,0,0,66.14,5a5.72,5.72,0,0,0-4.57,2.1c-1.2,1.39-1.79,3.5-1.79,6.3s.64,4.83,1.93,6a6.39,6.39,0,0,0,4.41,1.76,5.71,5.71,0,0,0,4-1.39A6.07,6.07,0,0,0,72,16.11H66.67V12.27h9.59V24.62H73.07l-.48-2.87a10.89,10.89,0,0,1-2.5,2.3,8.82,8.82,0,0,1-4.69,1.17,9.76,9.76,0,0,1-7.5-3.17c-2-2.12-3-5-3-8.71a12.81,12.81,0,0,1,3.08-9A10.49,10.49,0,0,1,66.07,1m0-1a11.49,11.49,0,0,0-8.88,3.7,13.83,13.83,0,0,0-3.34,9.64c0,3.93,1.12,7.09,3.33,9.4a10.74,10.74,0,0,0,8.22,3.48,9.85,9.85,0,0,0,5.21-1.31,9.68,9.68,0,0,0,1.33-1l.15.9.14.83h5V11.27H65.67v5.84h5A4.8,4.8,0,0,1,69.42,19a4.72,4.72,0,0,1-3.3,1.13,5.35,5.35,0,0,1-3.73-1.5c-1.07-1-1.61-2.74-1.61-5.27s.52-4.45,1.55-5.65A4.72,4.72,0,0,1,66.14,6a5.56,5.56,0,0,1,2.24.43A3.53,3.53,0,0,1,70.47,9l.18.77h6.66l-.13-1.12a9.29,9.29,0,0,0-3.41-6.2A11.66,11.66,0,0,0,66.07,0Z"/><path class="cls-1" d="M95.45,1.59l8.14,23H98.38l-1.52-4.73H88.37l-1.56,4.73h-5L90,1.59h5.45M89.68,15.92h5.9L92.67,6.86l-3,9.06M96.15.59H89.3l-.24.67-8.22,23-.48,1.33h7.18l.22-.68,1.34-4.05h7l1.29,4,.23.69H105l-.47-1.33-8.15-23L96.15.59ZM91.07,14.92l1.59-4.83,1.55,4.83Z"/><path class="cls-1" d="M125.21,1.59V5.45L113.28,20.56h12v4.06H107.46V20.56L119.23,5.67H107.76V1.59h17.45m1-1H106.76V6.67h10.41l-10.5,13.27-.21.27v5.41h19.78V19.56H115.35L126,6.07l.22-.27V.59Z"/><path class="cls-1" d="M135.58,1.59v23H130.8v-23h4.78m1-1H129.8v25h6.78V.59Z"/><path class="cls-1" d="M161.23,1.59v23h-4.81L147.05,8.28V24.62h-4.49v-23h5.05l9.14,16.06V1.59h4.48m1-1h-6.48V13.88L148.48,1.1l-.29-.51h-6.63v25h6.49V12l7.51,13.08.28.5h6.39V.59Z"/><path class="cls-1" d="M185.34,1.59V5.67H173.15v4.89h11.19v4H173.15v5.92H185.9v4.14H168.45v-23h16.89m1-1H167.45v25H186.9V19.48H174.15V15.56h11.19v-6H174.15V6.67h12.19V.59Z"/></g></g></svg>