<svg xmlns="http://www.w3.org/2000/svg" viewBox="0 0 196 26.38"><defs><style>.cls-1{fill:#333;}</style></defs><g id="レイヤー_2" data-name="レイヤー 2"><g id="レイヤー_1-2" data-name="レイヤー 1"><path class="cls-1" d="M10.89,1.7a8,8,0,0,1,5.45,1.78q2,1.78,2,5.52,0,4.08-2,5.77a8.8,8.8,0,0,1-5.77,1.68H5.78v8.28H1V1.7h9.89M5.78,12.48h4.34a3.68,3.68,0,0,0,2.56-.82A3.4,3.4,0,0,0,13.59,9a3.16,3.16,0,0,0-.91-2.56,3.87,3.87,0,0,0-2.56-.77H5.78v6.78M10.89.7H0v25H6.78V17.45h3.8A9.71,9.71,0,0,0,17,15.53C18.57,14.21,19.38,12,19.38,9c0-2.78-.8-4.89-2.38-6.27a9,9,0,0,0-6.11-2Zm-4.11,6h3.34A2.91,2.91,0,0,1,12,7.24,2.26,2.26,0,0,1,12.59,9,2.46,2.46,0,0,1,12,10.91a2.74,2.74,0,0,1-1.89.57H6.78V6.7Z"/><path class="cls-1" d="M35.92,1.7a9.83,9.83,0,0,1,3.63.6,5.63,5.63,0,0,1,2.16,1.61,7.29,7.29,0,0,1,1.16,1.93,6.58,6.58,0,0,1,.42,2.43,6.88,6.88,0,0,1-.82,3.22,4.63,4.63,0,0,1-2.74,2.24A4.35,4.35,0,0,1,42,15.55a7.65,7.65,0,0,1,.66,3.61V20.7a11.9,11.9,0,0,0,.13,2.14,1.92,1.92,0,0,0,.89,1.32v.57H38.36c-.15-.51-.25-.92-.32-1.23a11.87,11.87,0,0,1-.2-2l0-2.14a4.35,4.35,0,0,0-.76-2.94,3.87,3.87,0,0,0-2.74-.74h-4.7v9H24.9V1.7h11M29.61,11.89h5.18a5.51,5.51,0,0,0,2.31-.37,2.61,2.61,0,0,0,1.37-2.6,2.91,2.91,0,0,0-1.32-2.81,4.81,4.81,0,0,0-2.23-.41H29.61v6.19M35.93.7h-12v25h6.71v-9h3.7c1.44,0,1.9.31,2,.44s.45.58.47,2.25l0,2.14a12.75,12.75,0,0,0,.22,2.16c.07.34.18.77.33,1.32l.21.72h7.07V23.59l-.48-.29a.89.89,0,0,1-.43-.67,10,10,0,0,1-.11-1.93V19.16a8.49,8.49,0,0,0-.79-4.1,4.61,4.61,0,0,0-1.07-1.27A5.24,5.24,0,0,0,43.35,12a7.81,7.81,0,0,0,.94-3.68,7.55,7.55,0,0,0-.49-2.8,8.69,8.69,0,0,0-1.32-2.21A6.72,6.72,0,0,0,40,1.38a11,11,0,0,0-4-.68Zm-5.32,6h4.31A3.72,3.72,0,0,1,36.67,7c.19.11.8.43.8,1.93,0,1.16-.43,1.52-.8,1.69a4.41,4.41,0,0,1-1.88.28H30.61V6.7Z"/><path class="cls-1" d="M60.65,1q4.93,0,7.55,2.69,3.48,3.17,3.48,9.5t-3.48,9.5q-2.61,2.68-7.55,2.69T53.1,22.69q-3.49-3.3-3.5-9.5t3.5-9.5Q55.71,1,60.65,1m0,20.3a5.51,5.51,0,0,0,4.54-2.11,9.44,9.44,0,0,0,1.68-6,9.41,9.41,0,0,0-1.68-6,5.47,5.47,0,0,0-4.54-2.12,5.55,5.55,0,0,0-4.56,2.11,9.28,9.28,0,0,0-1.7,6,9.32,9.32,0,0,0,1.7,6,5.58,5.58,0,0,0,4.56,2.11m0-21.3c-3.54,0-6.31,1-8.24,3-2.53,2.3-3.81,5.74-3.81,10.22S49.89,21,52.42,23.42c1.89,1.95,4.67,3,8.23,3s6.34-1,8.27-3c2.49-2.35,3.76-5.79,3.76-10.19S71.41,5.27,68.89,3C67,1,64.19,0,60.65,0Zm0,20.3a4.56,4.56,0,0,1-3.78-1.74,8.38,8.38,0,0,1-1.48-5.37,8.36,8.36,0,0,1,1.48-5.37,4.56,4.56,0,0,1,3.78-1.74,4.51,4.51,0,0,1,3.76,1.74,8.53,8.53,0,0,1,1.46,5.37,8.49,8.49,0,0,1-1.46,5.37,4.51,4.51,0,0,1-3.76,1.74Z"/><path class="cls-1" d="M87.84,1.7a12.21,12.21,0,0,1,3.57.5,7.6,7.6,0,0,1,3.92,2.92A10.34,10.34,0,0,1,97,8.84a18,18,0,0,1,.43,3.82,15.31,15.31,0,0,1-1.84,7.78,8.33,8.33,0,0,1-7.73,4.29H77.91V1.7h9.93m-5.25,19H87a4.81,4.81,0,0,0,4.76-3.35,11.89,11.89,0,0,0,.73-4.4,10.71,10.71,0,0,0-1.1-5.39Q90.31,5.7,87,5.7H82.59v15M87.85.7H76.91v25H87.84a9.3,9.3,0,0,0,8.59-4.79,16.29,16.29,0,0,0,2-8.28,18.67,18.67,0,0,0-.46-4,11.21,11.21,0,0,0-1.8-4.08,8.62,8.62,0,0,0-4.43-3.3A13.51,13.51,0,0,0,87.86.7Zm-4.26,6H87c1.83,0,3,.46,3.53,1.39a10,10,0,0,1,1,4.89,10.88,10.88,0,0,1-.66,4A3.8,3.8,0,0,1,87,19.73H83.59V6.7Z"/><path class="cls-1" d="M122.07,1.7V15.86a11.88,11.88,0,0,1-1.14,5.72q-2.12,3.75-8.1,3.75t-8.11-3.75a11.88,11.88,0,0,1-1.14-5.72V1.7h4.89V15.85a7.84,7.84,0,0,0,.57,3.46c.58,1.29,1.84,1.94,3.79,1.94s3.21-.65,3.79-1.94a8,8,0,0,0,.56-3.46V1.7h4.89m1-1h-6.89V15.85a7,7,0,0,1-.45,3v0c-.26.58-.85,1.35-2.88,1.35-2.28,0-2.73-1-2.88-1.35v0l0,0a7,7,0,0,1-.45-3V.7h-6.89V15.86a12.65,12.65,0,0,0,1.27,6.2c1.61,2.84,4.63,4.27,9,4.27s7.37-1.43,9-4.26a12.77,12.77,0,0,0,1.27-6.21V.7Z"/><path class="cls-1" d="M138.53,1.27q5.76,0,8.41,3.81a8.3,8.3,0,0,1,1.58,4.3h-4.81a6.54,6.54,0,0,0-1.18-2.5,4.75,4.75,0,0,0-3.81-1.5,4.69,4.69,0,0,0-4.06,2.11,10.33,10.33,0,0,0-1.49,6c0,2.59.53,4.52,1.57,5.81a4.9,4.9,0,0,0,4,1.93,4.51,4.51,0,0,0,3.78-1.66,7.26,7.26,0,0,0,1.19-2.67h4.78A10.37,10.37,0,0,1,145.31,23a9.21,9.21,0,0,1-6.52,2.36,9.78,9.78,0,0,1-7.72-3.19q-2.82-3.21-2.82-8.78,0-6,3.2-9.3a9.48,9.48,0,0,1,7.08-2.84m0-1a10.46,10.46,0,0,0-7.79,3.14c-2.31,2.36-3.49,5.72-3.49,10,0,3.95,1,7.12,3.07,9.44a10.75,10.75,0,0,0,8.47,3.53,10.23,10.23,0,0,0,7.2-2.63,11.43,11.43,0,0,0,3.47-6.7l.19-1.16h-6.73l-.2.74a6.16,6.16,0,0,1-1,2.3,3.54,3.54,0,0,1-3,1.29,3.92,3.92,0,0,1-3.2-1.56,8.21,8.21,0,0,1-1.35-5.18,9.37,9.37,0,0,1,1.31-5.41,4.23,4.23,0,0,1,6.29-.54,5.47,5.47,0,0,1,1,2.11l.21.74h6.62l0-1.06a9.35,9.35,0,0,0-1.75-4.81c-2-2.82-5.08-4.24-9.24-4.24Z"/><path class="cls-1" d="M171.66,1.7V5.78h-6.89v19h-4.85V5.78H153V1.7h18.66m1-1H152V6.78h6.92v19h6.85V6.78h6.89V.7Z"/><path class="cls-1" d="M185.25,1A10.27,10.27,0,0,1,191.54,3a6.85,6.85,0,0,1,2.72,5.6h-4.62a3.31,3.31,0,0,0-1.86-2.95A6.3,6.3,0,0,0,184.91,5a5.45,5.45,0,0,0-3,.75,2.38,2.38,0,0,0-1.14,2.1,2,2,0,0,0,1.12,1.84,13.76,13.76,0,0,0,3.06.95l4.05.95a10.33,10.33,0,0,1,4,1.68A5.64,5.64,0,0,1,195,18a6.63,6.63,0,0,1-2.44,5.24,10.32,10.32,0,0,1-6.9,2.09,11.26,11.26,0,0,1-7.15-2.06,6.79,6.79,0,0,1-2.61-5.65h4.6a4.62,4.62,0,0,0,.88,2.36c.79.95,2.16,1.43,4.1,1.43A8.81,8.81,0,0,0,188.3,21a2.68,2.68,0,0,0,2.06-2.67,2,2,0,0,0-1-1.77,11.08,11.08,0,0,0-3.2-1.07L183.66,15a15.31,15.31,0,0,1-5-1.77,5.59,5.59,0,0,1-2.33-5,6.61,6.61,0,0,1,2.28-5.14q2.28-2.06,6.69-2m0-1c-3.18,0-5.66.78-7.36,2.3a7.63,7.63,0,0,0-2.61,5.89A6.59,6.59,0,0,0,178,14a16.42,16.42,0,0,0,5.4,1.92l2.5.54a9.6,9.6,0,0,1,2.89,1,1,1,0,0,1,.53.91c0,.61-.17,1.3-1.39,1.73a7.92,7.92,0,0,1-2.49.32c-1.62,0-2.74-.36-3.34-1.07a3.81,3.81,0,0,1-.65-1.85l-.12-.87H174.9v1a7.79,7.79,0,0,0,3,6.44,12.32,12.32,0,0,0,7.77,2.27c3.2,0,5.74-.78,7.55-2.33A7.59,7.59,0,0,0,196,18a6.62,6.62,0,0,0-2.44-5.49,11.29,11.29,0,0,0-4.38-1.86l-4-1a13.46,13.46,0,0,1-2.8-.85,1,1,0,0,1-.61-1,1.37,1.37,0,0,1,.69-1.26A4.52,4.52,0,0,1,184.91,6a5.46,5.46,0,0,1,2.42.47,2.31,2.31,0,0,1,1.31,2.12l.06.94h6.6l0-1a7.83,7.83,0,0,0-3.13-6.37A11.29,11.29,0,0,0,185.25,0Z"/></g></g></svg>