<svg xmlns="http://www.w3.org/2000/svg" viewBox="0 0 137.32 26.3"><defs><style>.cls-1{fill:#333;}</style></defs><g id="レイヤー_2" data-name="レイヤー 2"><g id="レイヤー_1-2" data-name="レイヤー 1"><path class="cls-1" d="M12,1.67a9.87,9.87,0,0,1,3.63.6,5.63,5.63,0,0,1,2.16,1.61A7.1,7.1,0,0,1,19,5.81a6.37,6.37,0,0,1,.43,2.42,6.93,6.93,0,0,1-.83,3.23,4.58,4.58,0,0,1-2.73,2.24,4.39,4.39,0,0,1,2.26,1.82,7.63,7.63,0,0,1,.66,3.6v1.55a11.07,11.07,0,0,0,.13,2.14,1.87,1.87,0,0,0,.89,1.31v.58H14.45c-.14-.51-.25-.92-.31-1.23a11.88,11.88,0,0,1-.2-2l0-2.14a4.39,4.39,0,0,0-.76-2.93,3.9,3.9,0,0,0-2.75-.74H5.7v9H1v-23H12M5.7,11.86h5.18a5.54,5.54,0,0,0,2.32-.38,2.58,2.58,0,0,0,1.36-2.59,2.91,2.91,0,0,0-1.32-2.81A4.76,4.76,0,0,0,11,5.67H5.7v6.19M12,.67H0v25H6.7v-9h3.7c1.44,0,1.91.31,2,.44s.44.58.47,2.25l0,2.14a11.9,11.9,0,0,0,.22,2.16c.07.34.18.77.33,1.32l.21.72h7.07V23.56l-.49-.29a.92.92,0,0,1-.43-.67,10.55,10.55,0,0,1-.1-1.93V19.12A8.47,8.47,0,0,0,19,15a4.48,4.48,0,0,0-1.08-1.27,5.27,5.27,0,0,0,1.57-1.84,8,8,0,0,0,.94-3.69,7.46,7.46,0,0,0-.5-2.79,8.25,8.25,0,0,0-1.32-2.21,6.68,6.68,0,0,0-2.52-1.88,11,11,0,0,0-4-.68Zm-5.33,6H11A3.66,3.66,0,0,1,12.76,7c.2.1.8.43.8,1.93,0,1.16-.42,1.51-.8,1.69a4.38,4.38,0,0,1-1.88.28H6.7V6.67Z"/><path class="cls-1" d="M43.59,1.67V5.75H31.4v4.89H42.59v4H31.4v5.92H44.15V24.7H26.7v-23H43.59m1-1H25.7v25H45.15V19.56H32.4V15.64H43.59v-6H32.4V6.75H44.59V.67Z"/><path class="cls-1" d="M58.68,1A10.23,10.23,0,0,1,65,2.93a6.89,6.89,0,0,1,2.73,5.6H63.07a3.27,3.27,0,0,0-1.86-2.95A6.25,6.25,0,0,0,58.35,5a5.49,5.49,0,0,0-3.05.75,2.38,2.38,0,0,0-1.13,2.09,2,2,0,0,0,1.12,1.85,13.76,13.76,0,0,0,3.06,1l4,.95a10.26,10.26,0,0,1,4,1.68A5.61,5.61,0,0,1,68.43,18,6.6,6.6,0,0,1,66,23.21Q63.56,25.3,59.1,25.3a11.29,11.29,0,0,1-7.16-2.06,6.81,6.81,0,0,1-2.6-5.65h4.59A4.62,4.62,0,0,0,54.81,20c.8.95,2.16,1.43,4.1,1.43A8.76,8.76,0,0,0,61.73,21a2.67,2.67,0,0,0,2.06-2.67,2,2,0,0,0-1-1.77,11.26,11.26,0,0,0-3.19-1.08l-2.5-.54A15.4,15.4,0,0,1,52,13.17a5.61,5.61,0,0,1-2.33-5A6.6,6.6,0,0,1,52,3.05Q54.27,1,58.68,1m0-1C55.5,0,53,.77,51.32,2.3a7.63,7.63,0,0,0-2.61,5.89A6.58,6.58,0,0,0,51.48,14a16.14,16.14,0,0,0,5.4,1.91l2.49.55a9.83,9.83,0,0,1,2.9,1,1,1,0,0,1,.52.91c0,.61-.16,1.3-1.39,1.73a7.92,7.92,0,0,1-2.49.32c-1.62,0-2.74-.36-3.33-1.07a3.81,3.81,0,0,1-.66-1.86l-.12-.86H48.34v1a7.78,7.78,0,0,0,3,6.44A12.28,12.28,0,0,0,59.1,26.3,11.3,11.3,0,0,0,66.64,24a7.59,7.59,0,0,0,2.79-6A6.61,6.61,0,0,0,67,12.48a11.16,11.16,0,0,0-4.37-1.86l-4-.95a13,13,0,0,1-2.8-.85,1,1,0,0,1-.61-1,1.38,1.38,0,0,1,.68-1.25A4.53,4.53,0,0,1,58.35,6a5.49,5.49,0,0,1,2.42.47,2.33,2.33,0,0,1,1.31,2.12l.05.94h6.6l0-1a7.86,7.86,0,0,0-3.13-6.37A11.32,11.32,0,0,0,58.68,0Z"/><path class="cls-1" d="M92.85,1.67V15.83a11.88,11.88,0,0,1-1.14,5.72Q89.6,25.3,83.62,25.3t-8.11-3.75a11.88,11.88,0,0,1-1.14-5.72V1.67h4.89V15.82a8,8,0,0,0,.56,3.46c.58,1.29,1.85,1.94,3.8,1.94s3.2-.65,3.78-1.94A8,8,0,0,0,88,15.82V1.67h4.89m1-1H87V15.82a6.89,6.89,0,0,1-.45,3v0c-.26.58-.84,1.35-2.87,1.35-2.28,0-2.74-1-2.89-1.35v0a6.86,6.86,0,0,1-.45-3V.67H73.37V15.83A12.68,12.68,0,0,0,74.63,22c1.62,2.84,4.64,4.27,9,4.27s7.37-1.44,9-4.26a12.66,12.66,0,0,0,1.27-6.21V.67Z"/><path class="cls-1" d="M104.85,1.67V20.56h11.5V24.7H100v-23h4.81m1-1H99v25h18.31V19.56h-11.5V.67Z"/><path class="cls-1" d="M136.32,1.67V5.75h-6.89v19h-4.85V5.75h-6.92V1.67h18.66m1-1H116.66V6.75h6.92v19h6.85V6.75h6.89V.67Z"/></g></g></svg>