<svg xmlns="http://www.w3.org/2000/svg" viewBox="0 0 70.96 26.38"><defs><style>.cls-1{fill:#333;}</style></defs><g id="レイヤー_2" data-name="レイヤー 2"><g id="レイヤー_1-2" data-name="レイヤー 1"><path class="cls-1" d="M19.66,1.7V5.78H12.77v19H7.92V5.78H1V1.7H19.66m1-1H0V6.78H6.92v19h6.85V6.78h6.89V.7Z"/><path class="cls-1" d="M35.22,1q4.94,0,7.54,2.69,3.5,3.17,3.49,9.5t-3.49,9.5q-2.61,2.68-7.54,2.69c-3.3,0-5.81-.9-7.55-2.69q-3.5-3.3-3.5-9.5t3.5-9.5C29.41,1.9,31.92,1,35.22,1m0,20.3a5.51,5.51,0,0,0,4.53-2.11,9.38,9.38,0,0,0,1.68-6,9.35,9.35,0,0,0-1.68-6,5.46,5.46,0,0,0-4.53-2.12,5.57,5.57,0,0,0-4.57,2.11,9.34,9.34,0,0,0-1.7,6,9.38,9.38,0,0,0,1.7,6,5.6,5.6,0,0,0,4.57,2.11m0-21.3C31.67,0,28.9,1,27,3c-2.52,2.3-3.8,5.74-3.8,10.22S24.45,21,27,23.42c1.9,1.95,4.68,3,8.24,3s6.33-1,8.26-3C46,21,47.25,17.59,47.25,13.19S46,5.27,43.46,3c-1.93-2-4.7-3-8.24-3Zm0,20.3a4.58,4.58,0,0,1-3.79-1.74A8.44,8.44,0,0,1,30,13.19a8.42,8.42,0,0,1,1.48-5.37,4.58,4.58,0,0,1,3.79-1.74A4.5,4.5,0,0,1,39,7.82a8.53,8.53,0,0,1,1.46,5.37A8.49,8.49,0,0,1,39,18.56a4.49,4.49,0,0,1-3.75,1.74Z"/><path class="cls-1" d="M62.48,1.7a8,8,0,0,1,5.45,1.78c1.36,1.19,2,3,2,5.52q0,4.08-2,5.77a8.8,8.8,0,0,1-5.77,1.68h-4.8v8.28H52.59V1.7h9.89M57.37,12.48h4.34a3.7,3.7,0,0,0,2.56-.82A3.4,3.4,0,0,0,65.18,9a3.16,3.16,0,0,0-.91-2.56,3.89,3.89,0,0,0-2.56-.77H57.37v6.78M62.48.7H51.59v25h6.78V17.45h3.8a9.71,9.71,0,0,0,6.41-1.92C70.16,14.21,71,12,71,9c0-2.78-.79-4.89-2.37-6.27a9,9,0,0,0-6.11-2Zm-4.11,6h3.34a2.93,2.93,0,0,1,1.92.54A2.26,2.26,0,0,1,64.18,9a2.46,2.46,0,0,1-.58,1.88,2.76,2.76,0,0,1-1.89.57H58.37V6.7Z"/></g></g></svg>